<?xml version="1.0" encoding="utf-8"?>
<!-- Generator: Adobe Illustrator 19.0.0, SVG Export Plug-In . SVG Version: 6.00 Build 0)  -->
<svg version="1.1" id="Layer_1" xmlns="http://www.w3.org/2000/svg" xmlns:xlink="http://www.w3.org/1999/xlink" x="0px" y="0px"
	 viewBox="-139 27 320 548" style="enable-background:new -139 27 320 548;" xml:space="preserve">
<style type="text/css">
	.st0{fill:#FFFFFF;}
	.st1{fill:#D0D2D3;}
</style>
<g>
	<g>
		<g>
			<path class="st0" d="M116.3,392c-0.6-0.1-0.9-0.4-0.9-1.5v-6.2c0.5-0.4,0.9-0.7,1.5-0.7c0.7,0,1.2,0.6,1.2,1.6v5.3
				c0,1.1-0.3,1.5-0.9,1.5v0.2h5.7V392c-0.7-0.1-1.2-0.5-1.2-1.5v-5.7c0-1.9-1.1-2.8-2.7-2.8c-1.4,0-2.7,0.8-3.5,1.8v-7.7l-0.2-0.1
				l-4.7,1.2v0.2c0.7,0,1.3,0.3,1.3,1.5v11.5c0,1.1-0.6,1.5-1.1,1.5v0.2h5.6V392H116.3z M109.8,382.9v-0.5h-2.2V378h-0.3
				c-0.7,2.1-2.7,4.2-4.5,4.7v0.3h1.2v7.1c0,1.5,1,2.5,2.4,2.5c1.5,0,2.8-1,3.6-2.5l-0.3-0.2c-0.4,0.6-0.7,0.7-1.1,0.7
				c-0.7,0-1.1-0.5-1.1-1.3V383L109.8,382.9L109.8,382.9z M92.5,404.4c-1.7,0-3.1-2.8-3.1-9.4c0-0.9,0-1.8,0.1-2.7
				c0.7-0.7,1.3-0.8,2.1-0.8c2.3,0,3.7,2.4,3.7,6.5C95.4,401.9,94.1,404.4,92.5,404.4 M92.1,405.1c4.7,0,9.3-4.1,9.3-9.7
				c0-4.2-2.5-7-6.1-7c-2.2,0-4.3,1.1-5.9,2.9c0.8-6.8,4.3-10.9,9.4-11.3v-0.6c-7.8,0-16.1,5.7-16.1,14.9
				C83,401.1,87.3,405.1,92.1,405.1 M72.3,391.4H49.6v2.7h22.7V391.4z M35.1,392.5l0.2,0.1l4.6-0.6v-0.2c-0.7,0-1.2-0.4-1.2-1.6v-14
				l-0.2-0.1l-4.7,1.2v0.2c0.7,0,1.3,0.3,1.3,1.5v3.2c-0.3-0.1-0.7-0.2-1-0.2c-2.9,0-5.5,2.6-5.5,6.1c0,2.7,1.6,4.5,3.6,4.5
				c1.1,0,2.1-0.6,3-1.7L35.1,392.5L35.1,392.5z M34.1,390.7c-1.1,0-2.1-1-2.1-3.7c0-2.8,0.9-4.7,2-4.7c0.6,0,0.9,0.5,1,1.1v7
				C34.7,390.6,34.5,390.7,34.1,390.7 M24.8,392c-0.7-0.1-1.2-0.5-1.2-1.5v-5.1c0.2-0.8,0.5-1.4,1-1.4c0.7,0,1,0.8,2,0.8
				c0.9,0,1.6-0.7,1.6-1.6c0-0.8-0.6-1.6-1.6-1.6s-2.3,0.8-3.1,2.7v-2.4l-0.2-0.1l-4.8,1.3v0.2c0.7,0,1.4,0.3,1.4,1.5v5.4
				c0,1.1-0.7,1.5-1.2,1.5v0.2L24.8,392L24.8,392z M7.2,410.3c5.4,0,10.4-3.2,10.4-7.9c0-3.4-2.4-6-5.5-6.7c3-1.5,4-4,4-5.9
				c0-3.3-3.3-5.1-6.8-5.1c-4.1,0-7.7,2.4-8.4,5.4l0.5,0.2c0.8-1.7,2.3-2.6,4.4-2.6c2.5,0,4.1,1.4,4.1,3.9c0,3-2.5,4.9-5.9,5.1v0.9
				h1.8c4.2,0,5.6,3.1,5.6,6.1c0,3.5-1.9,5.9-4,5.9c-1.6,0-2.1-1.3-2.7-3.6c-0.4-1.7-1.4-2.3-2.6-2.3c-1.4,0-2.4,1-2.4,2.4
				C-0.4,408.1,2,410.3,7.2,410.3 M-13.2,404.8c1.9,0,3.5-1.5,3.5-3.5c0-1.9-1.6-3.4-3.5-3.4s-3.5,1.5-3.5,3.4
				C-16.7,403.3-15.1,404.8-13.2,404.8 M-24.5,404.7l4.9-10.6c2.1-4.5,3.3-5.7,4.7-6.1v-0.4H-22v0.4c2.3,0.2,2.9,3,1.1,6.9l-1.6,3.4
				l-2.9-6.5c-0.9-2.2-0.3-3.5,1.1-3.6v-0.4h-10.6v0.4c0.9,0.4,1.9,1.4,3,3.7l6,13L-24.5,404.7L-24.5,404.7z M-47.1,395.9
				c0-6.4,1.4-8.3,2.8-8.3c1.9,0,3,3.1,3,8.5c0,6.6-1.4,8.3-2.9,8.3C-46,404.4-47.1,401.2-47.1,395.9 M-44.2,405.1
				c5.3,0,9.2-4.3,9.2-9.1c0-4.9-3.7-9.1-9.2-9.1c-5,0-9.2,4.1-9.2,9.1C-53.5,401.1-49.5,405.1-44.2,405.1 M-58.2,404.9l0.1-18.7
				c0-4.6,1.4-7,4-7.2v-0.4h-9.8v0.4c2.7,0.3,4.7,2.3,4.7,7.2l0.1,8.2l-13-15.7h-9.7v0.4c3,0.2,4.4,2.9,4.3,6.5l-0.1,11.2
				c0,5.2-1.9,7.2-4.3,7.3v0.4h10.4v-0.4c-2.5-0.2-4.9-2.2-5-8l-0.1-11.8l17.1,20.6H-58.2L-58.2,404.9z"/>
		</g>
	</g>
</g>
<g>
	<g>
		<g>
			<path class="st0" d="M65.3,484.6l-2,5.5h2.1l6.1-17.4h-2.1l-3.1,9l-3.2-9h-2.2L65.3,484.6z M43.7,485.1V480
				c0-1.7,0.3-3.1,0.9-4.1c0.7-1,1.4-1.5,2.3-1.5c1.3,0,2,0.8,2,2.4v8.3H51V480c0-1.7,0.3-3.1,0.9-4.1c0.7-1,1.4-1.5,2.3-1.5
				c1.3,0,2,0.8,2,2.4v8.3h2.1v-8.8c0-1.2-0.3-2.1-0.9-2.9c-0.6-0.7-1.5-1-2.5-1c-1.8,0-3.1,0.8-4,2.6c-0.2-0.8-0.6-1.5-1.1-1.9
				c-0.6-0.5-1.3-0.7-2.1-0.7c-1.8,0-3,0.8-3.9,2.5v-2.2h-1.9v12.4L43.7,485.1L43.7,485.1z M30.4,475.2c0.6-0.6,1.3-0.8,2.2-0.8
				s1.7,0.3,2.2,0.8c0.6,0.6,0.9,1.3,1.2,2.2h-6.8C29.4,476.5,29.8,475.7,30.4,475.2 M28.5,483.5c1,1.2,2.3,1.9,4.2,1.9
				c1.3,0,2.3-0.3,3.2-0.8c0.8-0.6,1.5-1.4,2.1-2.6l-1.9-0.7c-0.4,0.8-0.8,1.4-1.3,1.8c-0.6,0.4-1.2,0.6-2.1,0.6
				c-1,0-1.9-0.4-2.5-1.1c-0.6-0.7-0.9-1.8-1-3h9.1v-1.2c0-1.7-0.5-3.1-1.5-4.2s-2.3-1.8-4.1-1.8s-3.2,0.7-4.2,1.9
				c-0.9,1.2-1.4,2.7-1.4,4.5C27,480.7,27.5,482.2,28.5,483.5 M17.9,474.4c1.1,0,2,0.4,2.6,1.2c0.7,0.8,0.9,2,0.9,3.3
				s-0.3,2.4-0.9,3.3c-0.7,0.8-1.5,1.2-2.6,1.2c-1,0-2-0.4-2.6-1.2c-0.7-0.8-1-2-1-3.3s0.4-2.4,1-3.3
				C16,474.8,16.9,474.4,17.9,474.4 M17.7,485.2c0.7,0,1.4-0.2,2.1-0.5c0.7-0.4,1.2-0.7,1.5-1.2v1.5h2.1v-17.5h-2.1v6.5
				c-0.2-0.4-0.7-0.7-1.4-1.1c-0.7-0.4-1.4-0.6-2.2-0.6c-1.8,0-3.1,0.6-4,1.8c-0.9,1.1-1.4,2.7-1.4,4.7s0.5,3.5,1.4,4.7
				C14.7,484.7,16,485.2,17.7,485.2 M2.5,479.9c0.6-0.4,1.4-0.6,2.4-0.6h2.3v0.3c0,1.3-0.4,2.2-1,2.9c-0.7,0.7-1.5,0.9-2.4,0.9
				c-0.7,0-1.1-0.2-1.5-0.5c-0.4-0.4-0.6-0.8-0.6-1.4S2,480.3,2.5,479.9 M0.6,484.3c0.7,0.7,1.6,0.9,2.8,0.9c1.7,0,3-0.7,3.9-2
				l0.3,1.8h1.6v-7.9c0-1.5-0.5-2.7-1.3-3.5s-2-1.2-3.5-1.2c-1.2,0-2.1,0.3-3,0.9c-0.8,0.7-1.3,1.4-1.4,2.5l1.9,0.4
				c0.1-0.6,0.5-1.1,0.9-1.4c0.5-0.4,1-0.6,1.7-0.6c1.8,0,2.7,0.8,2.7,2.5v0.6H5.1c-1.8,0-3.1,0.4-4.1,1c-1,0.7-1.5,1.7-1.5,3
				C-0.5,482.7-0.1,483.7,0.6,484.3 M-12.3,483.5c1,1.2,2.4,1.9,4.2,1.9c2.4,0,4.2-1.1,5.2-3.5l-1.8-0.7c-0.7,1.5-1.8,2.3-3.4,2.3
				c-1.1,0-2-0.4-2.6-1.2c-0.7-0.8-0.9-2-0.9-3.3c0-1.4,0.3-2.4,0.9-3.3s1.5-1.2,2.6-1.2c1.6,0,2.7,0.7,3.4,2.3l1.8-0.7
				c-1-2.2-2.7-3.5-5.2-3.5c-1.8,0-3.2,0.7-4.2,1.9c-0.9,1.2-1.4,2.7-1.4,4.5C-13.7,480.7-13.2,482.2-12.3,483.5 M-22.3,470.7
				l2.6,7.7h-5.2L-22.3,470.7z M-27.1,485.1l1.5-4.6h6.6l1.5,4.6h2.1l-6-17.2h-2.1l-6,17.2H-27.1z"/>
		</g>
	</g>
</g>
<g>
	<g>
		<g>
			<path class="st0" d="M99.7,455v-5.2c0-1.7,0.4-3,1-4c0.7-1,1.6-1.5,2.5-1.5c1.4,0,2.1,0.8,2.1,2.5v8.2h2.1v-8.8
				c0-1.2-0.3-2.1-0.9-2.9c-0.7-0.7-1.5-1-2.6-1c-1.8,0-3.2,0.8-4.1,2.5v-2.2h-2.1V455H99.7z M87,449.8c0.6-0.4,1.4-0.6,2.4-0.6h2.2
				v0.3c0,1.3-0.4,2.2-1,2.9c-0.7,0.7-1.5,0.9-2.4,0.9c-0.7,0-1.1-0.2-1.5-0.5c-0.4-0.4-0.6-0.8-0.6-1.4
				C86.1,450.7,86.4,450.1,87,449.8 M85.1,454.2c0.7,0.7,1.6,0.9,2.8,0.9c1.7,0,3-0.7,3.9-2l0.3,1.8h1.6V447c0-1.5-0.5-2.7-1.3-3.5
				c-0.8-0.7-2-1.2-3.5-1.2c-1.2,0-2.1,0.3-3,0.9s-1.3,1.4-1.4,2.5l1.9,0.4c0.1-0.6,0.5-1.1,0.9-1.4c0.5-0.4,1-0.6,1.7-0.6
				c1.8,0,2.7,0.8,2.7,2.5v0.6h-2.1c-1.8,0-3.1,0.4-4.1,1c-1,0.7-1.5,1.7-1.5,3C84.1,452.7,84.4,453.6,85.1,454.2 M80.4,442.6h-2.1
				V455h2.1V442.6z M78.1,440.3c0.3,0.3,0.7,0.5,1.1,0.5s0.8-0.2,1.1-0.5c0.3-0.3,0.5-0.7,0.5-1.1s-0.2-0.8-0.5-1.1
				c-0.3-0.3-0.7-0.5-1.1-0.5s-0.7,0.2-1.1,0.5c-0.3,0.3-0.5,0.7-0.5,1.1C77.8,439.6,77.9,440,78.1,440.3 M66.1,455v-5.2
				c0-1.7,0.4-3,1-4c0.7-1,1.6-1.5,2.5-1.5c1.4,0,2.1,0.8,2.1,2.5v8.2h2.1v-8.8c0-1.2-0.3-2.1-0.9-2.9c-0.7-0.7-1.5-1-2.6-1
				c-1.8,0-3.2,0.8-4.1,2.5v-2.2h-2.1V455H66.1z M56,455v-4.7c0-1.9,0.4-3.4,1-4.4c0.7-1,1.5-1.6,2.4-1.6c0.5,0,0.9,0.1,1.5,0.4
				l0.4-1.9c-0.5-0.3-1-0.4-1.7-0.4s-1.4,0.2-2.1,0.7s-1.2,1-1.6,1.7v-2.1h-2.1V455H56z M42.7,445.1c0.6-0.6,1.3-0.8,2.2-0.8
				s1.7,0.3,2.2,0.8c0.6,0.6,0.9,1.3,1.2,2.2h-6.8C41.7,446.4,42.1,445.6,42.7,445.1 M40.8,453.3c1,1.2,2.3,1.9,4.2,1.9
				c1.3,0,2.3-0.3,3.2-0.8c0.8-0.6,1.5-1.4,2.1-2.6l-1.9-0.7c-0.4,0.8-0.8,1.4-1.3,1.8c-0.6,0.4-1.2,0.6-2.1,0.6
				c-1,0-1.9-0.4-2.5-1.1c-0.7-0.7-0.9-1.8-1-3h9.1v-0.9c0-1.7-0.5-3.1-1.5-4.2s-2.3-1.8-4.1-1.8s-3.2,0.7-4.2,1.9
				c-0.9,1.2-1.4,2.7-1.4,4.5C39.3,450.5,39.8,452.1,40.8,453.3 M30.9,444.3c1.1,0,2,0.4,2.6,1.2s1,2,1,3.3s-0.4,2.4-1,3.3
				c-0.7,0.8-1.5,1.2-2.6,1.2s-2-0.4-2.6-1.2s-0.9-2-0.9-3.3s0.3-2.4,0.9-3.3S29.8,444.3,30.9,444.3 M27.4,455v-1.5
				c0.3,0.5,0.8,0.9,1.5,1.2c0.7,0.4,1.4,0.5,2.1,0.5c1.8,0,3.1-0.6,4.1-1.8c0.9-1.1,1.4-2.7,1.4-4.7s-0.5-3.5-1.4-4.7
				c-0.9-1.1-2.3-1.8-4.1-1.8c-0.7,0-1.5,0.2-2.2,0.6s-1.2,0.7-1.4,1.1v-6.5h-2.1v17.5L27.4,455L27.4,455z M20.9,442.6h-2.1V455h2.1
				V442.6z M18.8,440.3c0.3,0.3,0.7,0.5,1.1,0.5c0.5,0,0.8-0.2,1.1-0.5s0.5-0.7,0.5-1.1s-0.2-0.8-0.5-1.1c-0.3-0.3-0.7-0.5-1.1-0.5
				c-0.5,0-0.7,0.2-1.1,0.5c-0.3,0.3-0.5,0.7-0.5,1.1C18.4,439.6,18.5,440,18.8,440.3 M4.2,455v-8.1H12v8.1h2.1v-17.2H12v7H4.2v-7
				H2.1V455H4.2z M-9.1,437.5h-2V455H-9v-17.5H-9.1z M-21.7,449.8c0.6-0.4,1.4-0.6,2.4-0.6h2.3v0.3c0,1.3-0.4,2.2-1,2.9
				c-0.7,0.7-1.5,0.9-2.4,0.9c-0.7,0-1.1-0.2-1.5-0.5c-0.4-0.4-0.6-0.8-0.6-1.4C-22.5,450.7-22.2,450.1-21.7,449.8 M-23.6,454.2
				c0.7,0.7,1.6,0.9,2.8,0.9c1.7,0,3-0.7,3.9-2l0.3,1.8h1.6V447c0-1.5-0.5-2.7-1.3-3.5s-2-1.2-3.5-1.2c-1.2,0-2.1,0.3-3,0.9
				c-0.8,0.7-1.3,1.4-1.4,2.5l1.9,0.4c0.1-0.6,0.5-1.1,0.9-1.4c0.5-0.4,1-0.6,1.7-0.6c1.8,0,2.7,0.8,2.7,2.5v0.6h-2
				c-1.8,0-3.1,0.4-4.1,1c-1,0.7-1.5,1.7-1.5,3C-24.6,452.7-24.3,453.6-23.6,454.2 M-32.6,454.4l-2,5.5h2.1l6.2-17.5h-2.2l-3.1,9
				l-3.2-9H-37L-32.6,454.4z M-47.4,445.6c0.7-0.9,1.6-1.4,2.8-1.4s2.1,0.5,2.8,1.4s1,2,1,3.2s-0.4,2.2-1,3.2
				c-0.7,0.9-1.6,1.3-2.8,1.3s-2.1-0.5-2.8-1.3c-0.7-0.9-1-2-1-3.2S-48.1,446.5-47.4,445.6 M-48.9,453.3c1.1,1.2,2.5,1.9,4.3,1.9
				s3.3-0.7,4.3-1.9c1.1-1.2,1.7-2.7,1.7-4.5s-0.6-3.3-1.7-4.5c-1.1-1.3-2.5-1.9-4.3-1.9s-3.2,0.7-4.3,1.9s-1.6,2.7-1.6,4.5
				C-50.6,450.5-50,452-48.9,453.3 M-63.1,439.8h3.6c1.9,0,2.8,0.8,2.8,2.5s-0.9,2.5-2.8,2.5h-3.6V439.8z M-63.1,455v-8.1h2.6l5,8.1
				h2.5l-5.1-8.2c1.1-0.2,2.1-0.7,2.6-1.5c0.7-0.7,0.9-1.8,0.9-2.9c0-1.4-0.5-2.5-1.4-3.4c-0.9-0.8-2.1-1.2-3.7-1.2h-5.7V455H-63.1z
				"/>
		</g>
	</g>
</g>
<g>
	<g>
		<g>
			<rect x="19.5" y="26.6" class="st1" width="2.9" height="191.8"/>
		</g>
	</g>
</g>
<g>
	<g>
		<g>
			<path class="st1" d="M143.4,501.9c-0.6,0.2-1,0.4-1.4,0.9c-0.4,0.6-0.5,1.1-0.4,1.7c0.1,0.7,0.4,1,0.9,1.5
				c0.6,0.4,1.1,0.5,1.7,0.4c0.7,0,1-0.3,1.5-0.9c0.4-0.6,0.5-1.1,0.4-1.7c-0.2-0.6-0.4-1-0.9-1.4
				C144.5,502,143.8,501.8,143.4,501.9 M155.8,483.4c0.3,0.7,0.2,1.3-0.1,2c-0.4,0.6-0.9,1.1-1.4,1.3c-0.7,0.2-1.4,0.2-2.2-0.3
				c-0.7-0.4-1.2-1-1.5-1.5c-0.3-0.7-0.2-1.3,0.1-2c0.4-0.6,0.9-1,1.5-1.3c0.7-0.2,1.4-0.2,2.2,0.3
				C155.1,482.3,155.5,482.7,155.8,483.4 M151.6,479.5c-1.2,0.3-2.2,1.3-2.8,2.5c-0.6,1.3-0.7,2.4-0.3,3.7c0.4,1.1,1.3,2.2,2.6,2.8
				c1.3,0.6,2.5,0.7,3.7,0.4c1.1-0.4,2.2-1.3,2.8-2.4c0.1-0.2,0.2-0.4,0.1-0.5l3.6,5.4l1.2-2.2l-5-7.4c-0.5-0.9-1.3-1.4-2.1-1.9
				C154,479.2,152.8,479.1,151.6,479.5 M164.3,476.9l-11-4.5l-0.9,2l13.9,5.7l0.4-0.8l-0.7-4.8l-2.2-0.9L164.3,476.9z M169.1,463.4
				c0.7,0.9,1,1.7,0.7,2.7c-0.3,1-1,1.6-2,1.7c-1.1,0.3-2.4,0.1-4.2-0.6c-1.7-0.5-2.9-1.2-3.7-2.1c-0.7-0.9-1-1.6-0.7-2.7
				c0.3-1,1-1.6,2.1-1.8c1.1-0.2,2.4-0.1,4.2,0.6C167.1,461.8,168.3,462.6,169.1,463.4 M160.3,458.8c-1.6,0.4-2.7,1.5-3.2,3.2
				s-0.3,3.1,0.7,4.4s2.7,2.3,5,3.1c2.3,0.8,4.2,0.9,5.8,0.4c1.6-0.4,2.7-1.5,3.2-3.2s0.3-3.1-0.7-4.4s-2.7-2.3-5-3.1
				C163.7,458.5,161.9,458.2,160.3,458.8 M159.8,454l2.1,0.5l1.4-5.6l4.3,5.5c0.7,1.1,1.8,1.6,3,2c1.3,0.3,2.3,0.2,3.3-0.4
				s1.5-1.5,1.9-2.8c0.3-1.2,0.2-2.2-0.4-3.2c-0.6-1-1.4-1.6-2.5-1.9L172,450c0.6,0.3,1.2,0.6,1.5,1.2c0.3,0.5,0.4,0.9,0.2,1.6
				c-0.2,0.7-0.5,1.1-1,1.3c-0.5,0.2-1,0.3-1.8,0.1c-0.5-0.1-0.9-0.3-1.2-0.5c-0.4-0.3-0.7-0.7-1.2-1.3l-5.6-7l-0.9-0.2L159.8,454z
				 M172,430.4c0.6,0.6,0.9,1.4,0.9,2.3c-0.1,0.9-0.6,1.6-1.3,2.1c-0.8,0.4-1.7,0.6-2.6,0.5c-0.9-0.1-1.9-0.5-2.5-1.1
				s-1-1.3-0.8-2.3c0.1-0.9,0.5-1.6,1.3-2.1c0.8-0.4,1.7-0.6,2.6-0.5C170.5,429.5,171.3,429.8,172,430.4 M163.7,431.6
				c-0.2,1.7,0.2,2.9,1.1,4.1c0.9,1.2,2.2,1.7,3.8,1.9c1.6,0.1,2.9-0.2,4.1-1c1.1-0.8,1.8-2,2.1-3.7c0.2-1.7-0.2-2.9-1.1-4.1
				c-0.9-1.2-2.2-1.7-3.8-1.9c-1.5-0.2-2.9,0.2-4.1,1C164.5,428.8,163.8,429.9,163.7,431.6 M173.5,419.6l-5.3-0.2
				c-1.3,0-2.3,0.2-2.9,0.9c-0.7,0.6-1.1,1.5-1.1,2.6c-0.1,0.7,0.1,1.2,0.2,1.7l1.9-0.5c-0.2-0.4-0.3-0.8-0.3-1c0-1,0.6-1.5,1.8-1.4
				l5.3,0.2l-0.1,2.8l2,0.1l0.1-2.8l4.4,0.1l-1.3-2.4l-3-0.2v-1.8l-2-0.1L173.5,419.6z M170.8,403c0.6,0.5,0.9,1,0.9,1.8
				c0.1,0.8-0.1,1.4-0.6,1.9c-0.5,0.6-1.1,0.8-2,0.9c-0.8,0.1-1.5-0.1-2.1-0.5c-0.6-0.5-0.9-1-1-1.7c-0.1-0.8,0.1-1.4,0.6-1.9
				s1.1-0.8,2-0.9C169.6,402.5,170.3,402.6,170.8,403 M165.1,401.9c-0.8,0.9-1.3,2.2-1.1,3.6c0.2,1.4,0.7,2.6,1.7,3.3
				c1,0.9,2.2,1.2,3.6,1c1.5-0.1,2.6-0.7,3.4-1.6s1.2-2.1,1-3.5c0-0.2,0-0.4-0.1-0.5l5.9,2.8l-0.2-2.5l-8.1-3.9
				c-0.8-0.4-1.8-0.6-2.8-0.4C167.1,400.4,166,400.9,165.1,401.9 M169.1,390.3c0.6,0.4,0.9,0.9,1,1.6c0.1,0.8,0,1.4-0.4,2
				c-0.5,0.6-1.1,0.8-2,1c-0.8,0.2-1.5,0-2.1-0.4s-0.9-0.9-1.1-1.7c-0.1-0.8,0-1.4,0.5-2s1.1-0.8,1.9-1.1
				C167.8,389.7,168.5,389.9,169.1,390.3 M163.4,389.6c-0.8,1.1-1.1,2.3-0.8,3.6c0.2,1.4,0.9,2.5,1.9,3.1c1.1,0.8,2.3,1.1,3.7,0.8
				c1.4-0.2,2.5-0.9,3.3-1.9c0.7-1,1-2.2,0.8-3.6c0-0.2-0.2-0.4-0.2-0.5l6.1,2.3l-0.4-2.4l-8.4-3.2c-0.8-0.4-1.9-0.5-2.8-0.3
				C165.3,387.9,164.2,388.5,163.4,389.6 M171.6,376.1c0.6,0.4,1,0.9,1.3,1.5c0.2,0.7,0.2,1.4-0.3,2c-0.4,0.6-1.1,1-1.8,1.2
				c-0.9,0.3-1.6,0.1-2.2-0.2c-0.6-0.4-1-0.9-1.3-1.6c-0.2-0.7-0.2-1.4,0.3-2c0.4-0.6,1.1-1,1.8-1.2
				C170.3,375.8,171,375.9,171.6,376.1 M165.8,375.9c-0.7,1-0.8,2.2-0.5,3.6c0.1,0.3,0.2,0.4,0.2,0.5l-6.2-1.8l0.7,2.6l8.7,2.4
				c0.9,0.3,1.9,0.3,2.8,0c1.3-0.3,2.4-1.1,3.1-2.2s0.9-2.3,0.6-3.7c-0.3-1.3-1.2-2.3-2.3-3s-2.4-0.8-3.7-0.5
				C167.5,374.1,166.5,374.8,165.8,375.9 M168.3,367l-11.2,3.7l0.7,2.2l14.3-4.8l-0.4-0.9l-3.7-3.2l-2.3,0.8L168.3,367z
				 M156.1,352.3l1.7-0.9l-6.5-12.2l-1.7,0.9L156.1,352.3z M136.4,331.1l12.2-9.1l-1.4-1.8l-12.2,9.1L136.4,331.1z M135.4,316.5
				c0.7,0.1,1.1,0.4,1.7,0.9c0.5,0.6,0.7,1.1,0.7,1.8c0,0.6-0.3,1.2-0.7,1.7l-3.4-4C134.1,316.6,134.7,316.4,135.4,316.5
				 M129.1,318.5c-0.2,0.6-0.3,1.1-0.3,1.6s0.1,1,0.3,1.6c0.2,0.6,0.5,1.1,1,1.6c0.7,0.9,1.6,1.4,2.4,1.8c0.8,0.2,1.9,0.1,3-0.1
				l-0.7-1.9c-0.6,0.2-1.2,0.3-1.8,0c-0.6-0.1-1.1-0.5-1.4-0.9c-0.5-0.6-0.8-1.3-0.7-2s0.5-1.4,1.1-1.9l5,5.9l0.8-0.5
				c0.4-0.4,0.7-0.7,1-1.1c0.3-0.4,0.6-0.8,0.7-1.3c0.2-0.6,0.2-1,0.2-1.5s-0.1-1-0.3-1.6c-0.2-0.6-0.5-1.1-1-1.6s-0.9-0.9-1.5-1.3
				s-1.1-0.5-1.6-0.5s-1.1,0-1.7,0.1s-1,0.3-1.5,0.5s-1,0.5-1.2,0.9c-0.5,0.3-0.7,0.7-1.1,1.1C129.6,317.5,129.3,317.9,129.1,318.5
				 M125.6,318l1.4-1.5l-3.6-3.7l9.1-2.1l0.7-0.6l-5.3-5.3l-1.4,1.5l3.2,3.2l-9.1,2.1l-0.7,0.6L125.6,318z M120.5,300.9l-3.4,3.9
				c-0.8,0.9-1.2,1.9-1.2,2.8c0.1,0.9,0.5,1.7,1.2,2.5c0.6,0.5,1,0.7,1.6,0.9l0.8-1.8c-0.4-0.1-0.7-0.2-1-0.4
				c-0.7-0.6-0.7-1.4,0.1-2.2l3.5-3.9l2.1,1.8l1.4-1.5l-2.1-1.8l2.9-3.3l-2.7-0.4l-2,2.3l-1.3-1.2l-1.4,1.5L120.5,300.9z
				 M111.6,305.1l9.4-12l-1.8-1.4l-9.4,12L111.6,305.1z M106.9,291.2c0.7,0,1.2,0.1,1.9,0.5c0.6,0.5,0.9,0.9,1.1,1.5
				c0.1,0.7,0,1.2-0.3,1.9l-4.3-3C105.8,291.6,106.3,291.4,106.9,291.2 M101.4,294.7c0,0.6,0,1.1,0.1,1.7s0.3,1,0.6,1.6
				c0.4,0.6,0.8,1,1.4,1.3c0.9,0.7,1.9,1,2.7,1c0.9,0,1.8-0.2,2.9-0.9l-1.1-1.7c-0.6,0.3-1,0.4-1.7,0.4s-1.1-0.2-1.7-0.6
				c-0.7-0.5-1.1-1.1-1.2-1.8c-0.1-0.8,0.1-1.5,0.6-2.1l6.3,4.5l0.5-0.8c0.3-0.4,0.5-0.8,0.7-1.3s0.3-1,0.3-1.5s0-1-0.1-1.6
				c-0.1-0.5-0.4-0.9-0.7-1.5c-0.3-0.5-0.8-1-1.4-1.3c-0.6-0.5-1.1-0.7-1.8-0.9s-1.1-0.2-1.7-0.1s-1,0.3-1.5,0.5
				c-0.6,0.3-1,0.5-1.3,1c-0.4,0.4-0.8,0.8-1,1.2c-0.3,0.5-0.6,0.8-0.8,1.4C101.5,293.7,101.5,294.1,101.4,294.7 M89.5,290.4
				l3.3-6.1l5.3,3l-3.3,6.1l2,1.2l7.4-13.1l-2-1.2l-2.9,5.2l-5.3-3l2.9-5.2l-2-1.2l-7.4,13.1L89.5,290.4z M78.8,275.5l-3.4,8.2
				l2,0.9l3.4-8.2l2.1,0.9l0.8-1.8l-2.1-0.9l0.3-0.6c0.4-1,1.1-1.4,2-1c0.5,0.2,0.7,0.4,1.1,0.8l1.2-1.6c-0.3-0.5-0.9-0.8-1.5-1.1
				c-1-0.4-2.1-0.5-2.9-0.1c-0.9,0.4-1.5,1.1-2,2.3l-0.2,0.6l-1.3-0.5l-0.8,1.8L78.8,275.5z M71.7,282.3l5.4-14.2l-2.1-0.8
				l-5.4,14.2L71.7,282.3z M62,270.7c0.7-0.4,1.5-0.7,2.4-0.4c0.9,0.3,1.5,0.8,1.7,1.6c0.4,0.9,0.2,1.7,0.1,2.6
				c-0.3,1-0.8,1.7-1.5,2.2c-0.7,0.4-1.5,0.7-2.4,0.4c-0.9-0.3-1.5-0.8-1.8-1.6c-0.3-0.9-0.2-1.7,0-2.6
				C60.8,272,61.3,271.2,62,270.7 M61.8,279c1.6,0.4,2.9,0.4,4.1-0.5c1.2-0.8,2.1-1.8,2.5-3.4s0.4-2.9-0.3-4.2
				c-0.7-1.3-1.7-2.1-3.3-2.6c-1.6-0.4-2.9-0.4-4.1,0.5c-1.2,0.8-2,1.9-2.5,3.4c-0.4,1.6-0.4,2.9,0.3,4.2
				C59.2,277.7,60.3,278.6,61.8,279 M48.8,267.4c0.6-0.5,1.3-0.8,2.2-0.5c0.8,0.1,1.4,0.6,1.7,1.4c0.4,0.8,0.4,1.6,0.2,2.7
				s-0.7,1.9-1.3,2.4s-1.4,0.7-2.2,0.5c-0.8-0.1-1.4-0.6-1.7-1.4c-0.4-0.8-0.4-1.7-0.2-2.7C47.8,268.8,48.2,268.1,48.8,267.4
				 M45.6,273.7c0.6,1.1,1.6,1.8,3.2,2.1c0.7,0.2,1.3,0.1,1.8,0c0.6-0.2,1-0.3,1.3-0.8l-0.2,1.2l2.2,0.4l3.1-14.9l-2.2-0.4l-1.2,5.5
				c-0.2-0.4-0.4-0.8-1-1.2c-0.6-0.5-1-0.7-1.5-0.8c-1.5-0.3-2.8-0.1-3.9,0.6c-1.1,0.7-1.7,2-2.1,3.8
				C44.9,271.1,44.9,272.5,45.6,273.7 M33.3,272.7c0.5,0.6,1.3,1.1,2.2,1.2c0.7,0.1,1.4,0,2.1-0.3s1.2-0.7,1.7-1.4l-0.1,1.9l2.2,0.2
				l1.2-10.8l-2.2-0.2l-0.5,4.3c-0.2,1.4-0.5,2.5-1.2,3.3c-0.6,0.7-1.2,1.1-2.1,1.1c-1-0.1-1.6-0.9-1.4-2.1l0.7-7l-2.2-0.2l-0.9,7.8
				C32.6,271.3,32.8,272.2,33.3,272.7 M21.2,260.1h2.9c0.7,0,1.1,0.2,1.4,0.5c0.4,0.4,0.4,0.8,0.5,1.4c0,0.7-0.2,1.1-0.5,1.4
				c-0.4,0.4-0.8,0.4-1.5,0.5h-2.9L21.2,260.1z M21.1,273l0.2-6.8H23l4.1,6.8l2.8,0.1l-4.2-7c0.9-0.3,1.7-0.7,2.2-1.3
				c0.5-0.7,0.8-1.5,0.8-2.6c0-1.3-0.3-2.3-1.1-3c-0.8-0.7-1.8-1.1-3.3-1.2l-5.3-0.1l-0.2,15L21.1,273z M4.9,265l0.7,8.8l2.3-0.1
				l-0.7-8.8l2.4-0.2l-0.1-2l-2.4,0.2L7,262.1c-0.2-1.2,0.3-1.8,1.3-1.7c0.4,0,0.9,0,1.3,0.2l0.3-1.9c-0.6-0.3-1.2-0.3-1.9-0.3
				c-1.2,0.2-2,0.4-2.7,1.2c-0.6,0.6-0.8,1.7-0.7,3l0.1,0.6l-1.4,0.2l0.1,2L4.9,265z M-6.3,267.6c0.4-0.8,1.1-1.3,2-1.4
				s1.7,0.1,2.3,0.7s1,1.4,1.2,2.5s0,1.8-0.4,2.7c-0.4,0.7-1.1,1.3-2,1.4s-1.7-0.1-2.3-0.7c-0.6-0.7-1-1.4-1.2-2.5
				C-6.9,269.2-6.7,268.3-6.3,267.6 M-2.9,275.2c1.6-0.2,2.7-1,3.6-2.3c0.8-1.2,1.1-2.6,0.9-4.1s-1-2.8-2.1-3.7
				c-1.1-0.9-2.5-1.3-4-1c-1.6,0.2-2.7,1-3.6,2.3c-0.8,1.2-1.1,2.6-0.9,4.1c0.2,1.5,1,2.8,2.1,3.7C-5.9,275.1-4.5,275.4-2.9,275.2
				 M-21.7,278.8c0.8,0.4,1.8,0.3,2.7,0.1c1-0.3,1.9-0.8,2.3-1.6c0.4-0.8,0.6-1.7,0.3-2.6c-0.2-0.6-0.5-1-0.8-1.2
				c-0.3-0.3-0.7-0.5-1.2-0.6c-0.1,0-0.2-0.1-0.3-0.1c-0.1,0-0.2-0.1-0.3-0.1c-0.1,0-0.2-0.1-0.2-0.1c-0.1,0-0.1,0-0.3,0
				c-0.1,0-0.2,0-0.2,0s-0.1,0.1-0.3,0c-0.2,0-0.3,0-0.3,0c-0.5,0-0.9,0-1.1-0.2c-0.3,0-0.5-0.1-0.6-0.3c-0.3-0.1-0.4-0.4-0.5-0.6
				c-0.1-0.4,0-0.7,0-0.9c0.1-0.3,0.4-0.4,0.7-0.4c0.7-0.2,1.5-0.1,2.1,0.5l1-1.6c-0.5-0.4-1-0.7-1.7-0.8c-0.7-0.2-1.3-0.1-1.8,0
				c-0.9,0.3-1.6,0.7-2,1.4c-0.4,0.7-0.5,1.5-0.2,2.3c0.3,1.2,1.4,2,3,2.1c0.1,0,0.4,0.1,0.7,0.1c0.4,0.1,0.7,0.1,0.8,0
				c0.2,0,0.4,0.1,0.7,0.2c0.5,0.1,0.6,0.3,0.8,0.7c0.3,0.9-0.1,1.5-1.1,1.8c-0.9,0.4-1.9-0.1-2.9-1.2l-1.5,1.5
				C-23.2,277.9-22.6,278.5-21.7,278.8 M-28.4,281.8l-1.3-3.8c-0.5-1.5-0.8-2.7-0.5-3.8c0.2-1,0.7-1.7,1.5-1.8
				c0.5-0.2,0.9-0.3,1.3-0.2l-0.3-2.1c-0.5,0-0.9,0.1-1.4,0.2c-0.7,0.3-1,0.6-1.5,1.1c-0.5,0.6-0.7,1.1-0.8,1.9l-0.6-1.7l-2.2,0.8
				l3.7,10.2L-28.4,281.8z M-40.6,282.1c0.3-0.4,0.7-0.8,1.2-1.1l1.7-0.8l0.1,0.3c0.4,0.8,0.3,1.5,0,2.3s-0.8,1.2-1.5,1.5
				c-0.4,0.2-0.8,0.2-1,0.1c-0.4-0.2-0.6-0.4-0.7-0.7C-40.9,283-40.9,282.5-40.6,282.1 M-41.1,286.3c0.8,0.2,1.7,0.2,2.5-0.2
				c1.3-0.6,2.1-1.5,2.4-2.8l0.8,1.1l1.7-0.8l-2.7-6.1c-1.2-2.7-3-3.3-5.8-2.1c-0.9,0.4-1.6,1-2.1,1.8c-0.4,0.8-0.6,1.7-0.3,2.6
				l2.1-0.3c-0.1-1,0.3-1.8,1.2-2.1c0.7-0.3,1.1-0.3,1.6-0.2c0.5,0.1,0.8,0.4,1.1,1.1l0.3,0.4l-1.7,0.8c-1.2,0.6-2.2,1.3-2.7,2.3
				c-0.5,0.9-0.6,1.9-0.1,2.9C-42.4,285.4-41.8,286-41.1,286.3 M-53.1,283.9c0.3-0.6,0.7-1,1.3-1.4c0.7-0.4,1.3-0.4,1.9-0.3
				c0.7,0.2,1.1,0.6,1.6,1.2l-4.6,2.5C-53.3,285.1-53.4,284.6-53.1,283.9 M-52.5,290.5c0.5,0.3,1,0.5,1.5,0.6c0.6,0.1,1,0.1,1.7,0.1
				s1.2-0.3,1.9-0.6c1-0.6,1.7-1.2,2.1-1.9c0.4-0.7,0.6-1.8,0.5-3l-2,0.2c0,0.7-0.1,1.2-0.4,1.8c-0.3,0.5-0.7,0.9-1.3,1.2
				c-0.8,0.4-1.4,0.5-2.1,0.2c-0.7-0.3-1.3-0.9-1.7-1.5l6.9-3.6l-0.4-0.8c-0.3-0.4-0.5-0.9-0.9-1.2c-0.4-0.4-0.7-0.7-1.2-1
				s-0.9-0.5-1.5-0.6c-0.5-0.1-1-0.1-1.6,0c-0.7,0-1.2,0.3-1.8,0.6c-0.7,0.4-1.1,0.7-1.5,1.2s-0.7,0.9-0.8,1.5
				c-0.2,0.6-0.2,1-0.3,1.6c0,0.6,0.1,1.1,0.2,1.6c0.1,0.5,0.3,1,0.6,1.4c0.2,0.5,0.5,1,0.9,1.2C-53.4,289.8-53,290.1-52.5,290.5
				 M-62.1,291.7l3.6,5.3l2-1.3l-3.6-5.3l-1.3-9.6l-2.1,1.4l1,6.8l-5.9-3.5l-2.1,1.4L-62.1,291.7z M-81.3,299.9
				c-0.3-1.1,0.1-2,0.8-2.7c0.8-0.6,1.7-0.8,2.7-0.5c1.1,0.3,2.1,1.2,3.3,2.6c1.2,1.4,1.8,2.6,2.1,3.7c0.3,1.1-0.1,1.9-0.8,2.6
				c-0.8,0.6-1.7,0.8-2.7,0.5c-1-0.4-2.1-1.3-3.3-2.6C-80.3,302.1-81.1,300.8-81.3,299.9 M-76.2,308.3c1.6,0.4,3,0.1,4.4-1.1
				c1.3-1.2,1.9-2.6,1.8-4.1c-0.2-1.6-1.1-3.4-2.7-5.2c-1.6-1.8-3.1-2.9-4.7-3.4s-3-0.1-4.4,1.1c-1.3,1.2-1.9,2.6-1.8,4.1
				c0.2,1.6,1,3.3,2.7,5.2C-79.4,306.8-77.8,307.9-76.2,308.3 M-84.3,317.5c1.1-0.1,2.2-0.5,3-1.4c1.1-1.1,1.6-2.2,1.4-3.4
				c-0.1-1.3-0.6-2.5-1.7-3.5c-1.1-1.1-2.2-1.7-3.4-1.8c-1.3-0.1-2.4,0.4-3.4,1.4c-0.5,0.5-1,1.3-0.9,2l-2.3-3l3.9-3.9l-1.6-1.4
				l-5.3,5.3l5.4,6.5l1.2-0.8c-0.2-1.3,0.2-2.3,0.9-3.2c0.5-0.5,1.1-0.8,1.9-0.7c0.7,0.1,1.3,0.5,1.9,1c0.6,0.7,1,1.3,1.1,2
				c0.1,0.8-0.1,1.4-0.8,1.9c-0.5,0.5-1,0.6-1.6,0.7c-0.7,0-1.2-0.2-2-0.7l-1.3,1.7C-86.6,317.2-85.5,317.7-84.3,317.5
				 M-100.7,330.4c0.6-0.2,1-0.4,1.4-0.9c0.4-0.6,0.5-1.1,0.4-1.7c-0.1-0.7-0.4-1-0.9-1.5c-0.6-0.4-1.1-0.5-1.7-0.4
				c-0.7,0-1,0.3-1.5,0.9c-0.4,0.6-0.5,1.1-0.4,1.7c0.2,0.6,0.4,1,0.9,1.4C-101.9,330.4-101.3,330.5-100.7,330.4 M-113.2,348.6
				c-0.3-0.7-0.2-1.3,0.2-2c0.4-0.6,0.9-1,1.5-1.3c0.7-0.1,1.3-0.1,2.2,0.3c0.7,0.4,1.2,1,1.5,1.6c0.2,0.7,0.2,1.3-0.1,2
				c-0.4,0.6-0.9,1-1.5,1.3c-0.7,0.2-1.4,0-2.2-0.3C-112.5,349.8-112.9,349.3-113.2,348.6 M-109,352.7c1.2-0.3,2.3-1.2,2.9-2.5
				s0.7-2.4,0.4-3.7c-0.3-1.2-1.2-2.3-2.5-2.9s-2.5-0.8-3.7-0.5s-2.2,1.1-2.9,2.4c-0.1,0.2-0.2,0.4-0.1,0.5l-3.5-5.5l-1.2,2.2
				l4.7,7.5c0.4,0.8,1.3,1.4,2,1.8C-111.5,352.8-110.3,353.1-109,352.7 M-121.7,355l10.9,4.8l0.9-2l-13.7-6.1l-0.4,0.8l0.6,4.8
				l2.2,0.9L-121.7,355z M-126.6,368.6c-0.7-0.9-0.9-1.7-0.6-2.6c0.3-1,1.1-1.6,2.1-1.7c1.1-0.2,2.4,0,4.2,0.7
				c1.7,0.6,2.9,1.3,3.6,2.2c0.7,0.9,0.9,1.7,0.6,2.6s-1.1,1.6-2.1,1.7s-2.5-0.1-4.2-0.7C-124.7,370-126,369.4-126.6,368.6
				 M-118,373.3c1.6-0.4,2.7-1.5,3.3-3.1c0.6-1.7,0.5-3.2-0.6-4.5c-1-1.3-2.7-2.4-5-3.2s-4.1-1-5.8-0.5c-1.6,0.4-2.7,1.5-3.3,3.1
				c-0.6,1.7-0.5,3.2,0.6,4.5c1,1.3,2.7,2.4,4.9,3.1C-121.4,373.6-119.6,373.7-118,373.3 M-117.4,378.1l-2.1-0.5l-1.4,5.6l-4.3-5.5
				c-0.7-1.1-1.8-1.6-3-2c-1.3-0.3-2.3-0.2-3.3,0.4s-1.5,1.5-1.9,2.8c-0.3,1.2-0.2,2.2,0.4,3.2s1.4,1.6,2.5,1.9l0.9-1.9
				c-0.6-0.3-1.2-0.6-1.5-1.2c-0.3-0.5-0.4-0.9-0.2-1.6c0.2-0.7,0.5-1.1,1-1.3c0.5-0.2,1-0.3,1.8-0.1c0.5,0.1,0.9,0.3,1.2,0.5
				c0.4,0.3,0.7,0.7,1.2,1.3l5.6,7l0.9,0.2L-117.4,378.1z M-129.9,401.7c-0.6-0.6-0.9-1.4-0.9-2.3s0.6-1.6,1.3-2.1
				c0.8-0.4,1.7-0.6,2.6-0.5s1.9,0.5,2.5,1.1s1,1.3,0.8,2.3c-0.1,0.9-0.5,1.6-1.3,2.1c-0.8,0.4-1.7,0.6-2.6,0.5
				C-128.4,402.6-129.2,402.3-129.9,401.7 M-121.5,400.4c0.2-1.7-0.2-2.9-1.1-4.1s-2.2-1.7-3.8-1.9c-1.5-0.2-2.9,0.2-4.1,1
				c-1.1,0.8-1.8,2-2.1,3.7c-0.2,1.7,0.2,2.9,1.1,4.1s2.2,1.7,3.8,1.9c1.5,0.2,2.9-0.2,4.1-1C-122.4,403.2-121.7,402-121.5,400.4
				 M-131.5,412.4l5.3,0.2c1.3,0,2.3-0.2,2.9-0.9c0.7-0.6,1.1-1.5,1.1-2.6c0.1-0.7-0.1-1.2-0.2-1.7l-1.9,0.5c0.2,0.4,0.3,0.8,0.3,1
				c0,1-0.6,1.5-1.8,1.4l-5.3-0.2l0.1-2.8l-2-0.1l-0.1,2.8l-4.4-0.1l1.3,2.4l3,0.2v1.8l2,0.1L-131.5,412.4z M-129,428.9
				c-0.6-0.5-0.7-1.1-0.9-1.8c-0.1-0.8,0.1-1.4,0.7-1.9c0.5-0.5,1.1-0.7,2-0.9c0.8-0.1,1.6,0.1,2.1,0.5c0.6,0.5,0.8,1.1,0.9,1.8
				c0.1,0.8-0.1,1.4-0.7,1.9s-1.1,0.8-2,0.9C-127.8,429.5-128.4,429.3-129,428.9 M-123.3,430.1c0.9-0.9,1.3-2.1,1.2-3.5
				c-0.2-1.4-0.7-2.6-1.6-3.3c-0.9-0.8-2.2-1.3-3.6-1.1c-1.5,0.1-2.6,0.7-3.4,1.5c-0.9,0.9-1.3,2.1-1.1,3.4c0,0.2,0,0.4,0.1,0.5
				l-5.8-3l0.2,2.5l8.1,4.1c0.8,0.4,1.8,0.6,2.8,0.5C-125.4,431.6-124.2,431.1-123.3,430.1 M-127.2,441.9c-0.6-0.4-0.9-0.9-1-1.6
				c-0.1-0.8,0-1.4,0.4-2c0.5-0.6,1.1-0.8,2-1c0.8-0.2,1.5,0,2.1,0.4s0.9,0.9,1.1,1.7c0.1,0.8,0,1.4-0.5,2s-1.1,0.8-1.9,1.1
				C-125.9,442.4-126.7,442.1-127.2,441.9 M-121.5,442.6c0.8-1.1,1.1-2.3,0.8-3.6c-0.2-1.4-0.9-2.5-1.9-3.1
				c-1.1-0.8-2.3-1.1-3.7-0.8c-1.4,0.2-2.5,0.9-3.3,1.9c-0.7,1-1,2.2-0.8,3.6c0,0.2,0.2,0.4,0.2,0.5l-6.1-2.3l0.4,2.4l8.4,3.2
				c0.8,0.4,1.9,0.5,2.8,0.3C-123.4,444.2-122.3,443.7-121.5,442.6 M-129.9,456c-0.6-0.4-1-0.9-1.3-1.5c-0.3-0.6-0.2-1.4,0.3-2
				c0.4-0.6,1.1-1,1.8-1.2c0.9-0.3,1.6-0.1,2.2,0.2c0.6,0.3,1,0.9,1.3,1.6c0.2,0.7,0.2,1.4-0.3,2c-0.4,0.6-1.1,1-1.8,1.2
				C-128.5,456.5-129.2,456.3-129.9,456 M-124.1,456.2c0.7-1,0.8-2.2,0.5-3.6c-0.1-0.3-0.2-0.4-0.2-0.5l6.3,1.8l-0.7-2.6l-8.7-2.4
				c-0.9-0.3-1.9-0.3-2.8,0c-1.3,0.3-2.4,1.1-3.1,2.2c-0.7,1.1-0.9,2.3-0.6,3.7c0.3,1.3,1.2,2.3,2.3,3s2.4,0.8,3.7,0.5
				C-125.8,458-124.7,457.3-124.1,456.2 M-126.6,465.1l11.2-3.7l-0.7-2.2l-14.3,4.8l0.4,0.9l3.7,3.2l2.3-0.8L-126.6,465.1z
				 M-114.5,479.9l-1.7,0.9l6.5,12.2l1.7-0.9L-114.5,479.9z M-95,501.2l-12.2,9.1l1.4,1.8l12.2-9.1L-95,501.2z M-94.1,516
				c-0.7-0.1-1.1-0.4-1.7-0.9c-0.5-0.6-0.7-1.1-0.7-1.8c0-0.6,0.3-1.2,0.7-1.7l3.4,4C-92.8,515.9-93.4,516-94.1,516 M-87.8,514
				c0.2-0.6,0.3-1.1,0.3-1.6c0-0.5-0.1-1-0.3-1.6c-0.2-0.6-0.5-1.1-1-1.6c-0.7-0.9-1.6-1.4-2.4-1.8c-0.8-0.2-1.9-0.1-3,0.1l0.7,1.9
				c0.6-0.2,1.2-0.3,1.8,0c0.6,0.1,1.1,0.5,1.4,0.9c0.5,0.6,0.8,1.3,0.7,2c-0.1,0.7-0.5,1.4-1.1,1.9l-5-5.9l-0.8,0.5
				c-0.4,0.4-0.7,0.7-1,1.1s-0.6,0.8-0.7,1.3c-0.2,0.6-0.2,1-0.2,1.5s0.1,1,0.3,1.6c0.2,0.6,0.5,1.1,1,1.6s0.9,0.9,1.5,1.3
				c0.6,0.4,1.1,0.5,1.6,0.5s1.1,0,1.7-0.1s1-0.3,1.5-0.5s1-0.5,1.2-0.9c0.5-0.3,0.7-0.7,1.1-1.1C-88.2,515-88,514.5-87.8,514
				 M-84.3,514.5l-1.4,1.5l3.6,3.7l-9.1,2.1l-0.7,0.6l5.3,5.3l1.4-1.5l-3.2-3.2l9.1-2.1l0.7-0.6L-84.3,514.5z M-79.5,531.5l3.5-3.8
				c0.8-0.9,1.3-1.8,1.2-2.8c-0.1-0.9-0.5-1.7-1.2-2.5c-0.6-0.5-1-0.7-1.6-0.9l-0.9,1.8c0.4,0.1,0.7,0.2,1,0.5
				c0.7,0.6,0.6,1.3-0.2,2.2l-3.6,3.9l-2-1.8l-1.4,1.5l2,1.8l-3,3.2l2.6,0.5l2-2.2l1.3,1.2l1.4-1.5L-79.5,531.5z M-70.5,527.5
				l-9.7,11.7l1.7,1.5l9.7-11.7L-70.5,527.5z M-65.9,541.4c-0.7,0-1.2-0.1-1.9-0.5c-0.6-0.5-0.9-0.9-1.1-1.5c-0.1-0.7,0-1.2,0.3-1.9
				l4.3,3C-64.6,541-65.3,541.2-65.9,541.4 M-60.3,538c0-0.6,0-1.1-0.1-1.7c-0.1-0.6-0.3-1-0.6-1.6s-0.8-1-1.4-1.3
				c-0.9-0.7-1.9-1-2.7-1c-0.9,0-1.8,0.2-2.9,0.9l1.1,1.7c0.6-0.3,1-0.4,1.7-0.4c0.6,0,1.1,0.2,1.7,0.6c0.7,0.5,1.1,1.1,1.2,1.8
				c0.1,0.8-0.1,1.5-0.6,2.1l-6.2-4.5l-0.5,0.8c-0.3,0.4-0.5,0.8-0.7,1.3s-0.3,1-0.3,1.5s0,1,0.1,1.6c0.1,0.5,0.4,0.9,0.7,1.5
				c0.3,0.5,0.8,1,1.4,1.3c0.6,0.5,1.1,0.7,1.8,0.9c0.7,0.2,1.1,0.2,1.7,0.1c0.6-0.1,1-0.3,1.5-0.5c0.6-0.3,1-0.5,1.3-1
				c0.4-0.4,0.8-0.8,1-1.2c0.3-0.5,0.6-0.8,0.8-1.4C-60.5,539-60.3,538.5-60.3,538 M-48.3,542.4l-3.3,6.1l-5.3-3l3.3-6.1l-2-1.2
				l-7.4,13.2l2,1.2l2.9-5.2l5.3,3l-2.9,5.2l2,1.2l7.4-13.1L-48.3,542.4z M-38,557.2l3.6-8.2l-2-0.9l-3.6,8.2l-2.1-0.9l-0.8,1.8
				l2.1,0.9l-0.3,0.6c-0.4,1-1.1,1.4-2,1c-0.5-0.2-0.7-0.4-1.1-0.8l-1.2,1.6c0.3,0.5,0.9,0.8,1.5,1.1c1,0.4,2.1,0.5,2.8,0.2
				c0.9-0.4,1.5-1.1,2.1-2.3l0.2-0.6l1.3,0.5l0.8-1.8L-38,557.2z M-30.8,550.5l-5.4,14.2l2.1,0.8l5.4-14.2L-30.8,550.5z M-21,562.2
				c-0.7,0.4-1.5,0.7-2.4,0.4s-1.5-0.8-1.7-1.6c-0.4-0.9-0.2-1.7-0.1-2.6c0.3-1,0.8-1.7,1.5-2.2c0.7-0.4,1.5-0.7,2.4-0.4
				s1.5,0.8,1.8,1.6c0.3,0.9,0.2,1.7,0,2.6C-19.9,561-20.3,561.8-21,562.2 M-20.9,553.9c-1.6-0.4-2.9-0.4-4.1,0.5
				c-1.2,0.8-2.1,1.8-2.5,3.4c-0.4,1.6-0.4,2.9,0.3,4.2c0.7,1.3,1.7,2.1,3.2,2.7c1.6,0.4,2.9,0.4,4.1-0.5c1.2-0.8,2-1.9,2.5-3.4
				c0.4-1.6,0.4-2.9-0.3-4.2C-18.2,555.2-19.3,554.4-20.9,553.9 M-7.9,565.5c-0.6,0.5-1.3,0.8-2.2,0.5c-0.8-0.1-1.4-0.6-1.7-1.4
				c-0.4-0.8-0.4-1.6-0.2-2.7c0.2-1.1,0.7-1.9,1.3-2.4s1.4-0.7,2.2-0.5c0.8,0.1,1.4,0.6,1.7,1.4c0.4,0.8,0.4,1.7,0.2,2.7
				C-6.9,564.2-7.3,565-7.9,565.5 M-4.7,559.4c-0.6-1.1-1.6-1.8-3.2-2.1c-0.7-0.2-1.3-0.1-1.8,0c-0.6,0.2-1,0.3-1.3,0.8l0.2-1.2
				l-2.2-0.4l-3.1,14.9l2.2,0.4l1.2-5.5c0.2,0.4,0.4,0.8,1,1.2c0.6,0.5,1,0.7,1.5,0.8c1.5,0.3,2.8,0.1,3.9-0.6
				c1.1-0.7,1.7-2,2.1-3.8C-4,562-4.1,560.5-4.7,559.4 M7.6,560.5c-0.5-0.6-1.3-1.1-2.2-1.2c-0.7-0.1-1.4,0-2.1,0.3
				s-1.2,0.7-1.7,1.4l0.1-1.9l-2.2-0.2l-1.2,10.8l2.2,0.2l0.5-4.3c0.2-1.4,0.5-2.5,1.2-3.3c0.6-0.7,1.2-1.1,2.1-1.1
				c1,0.1,1.6,0.9,1.4,2.1l-0.7,7l2.2,0.2l0.9-7.8C8.4,561.9,8,561,7.6,560.5 M19.4,573.2l-3-0.2c-0.6,0-1.1-0.2-1.4-0.5
				c-0.4-0.4-0.4-0.8-0.5-1.4c0-0.6,0.2-1.1,0.6-1.4c0.4-0.4,0.9-0.4,1.5-0.4l3,0.2L19.4,573.2z M19.8,560.4l-0.2,6.7h-1.7l-3.9-7
				l-2.8-0.1l4.1,7c-1,0.2-1.7,0.6-2.2,1.3s-0.8,1.5-0.9,2.6c0,1.3,0.3,2.4,1,3c0.8,0.8,1.8,1.2,3.3,1.3l5.3,0.2l0.6-15.1
				L19.8,560.4z M36.1,568.5l-0.7-8.8l-2.3,0.1l0.7,8.8l-2.4,0.2l0.1,2l2.4-0.2l0.1,0.8c0.2,1.2-0.3,1.8-1.3,1.7
				c-0.4,0-0.9,0-1.3-0.2l-0.3,1.9c0.6,0.2,1.1,0.2,1.9,0.2c1.2-0.2,2-0.4,2.7-1.2c0.6-0.6,0.8-1.7,0.7-3l-0.1-0.6l1.4-0.2l-0.1-2
				L36.1,568.5z M47.2,566c-0.4,0.8-1.1,1.3-2,1.4c-0.9,0.1-1.7-0.1-2.3-0.7c-0.6-0.6-1-1.4-1.2-2.5c-0.2-1,0-1.8,0.4-2.7
				c0.4-0.7,1.1-1.3,2-1.4c0.9-0.1,1.7,0.1,2.3,0.7c0.6,0.7,1,1.4,1.2,2.5C47.7,564.4,47.7,565.2,47.2,566 M43.8,558.4
				c-1.6,0.2-2.7,1-3.6,2.3c-0.8,1.2-1.1,2.6-0.9,4.1c0.2,1.5,1,2.8,2.1,3.7s2.5,1.3,4,1c1.6-0.2,2.7-1,3.6-2.3
				c0.8-1.2,1.1-2.6,0.9-4.1c-0.2-1.5-1-2.8-2.1-3.7C46.9,558.4,45.5,558,43.8,558.4 M62.6,554.8c-0.8-0.4-1.8-0.3-2.7-0.1
				c-1,0.3-1.9,0.8-2.3,1.6c-0.4,0.8-0.6,1.7-0.3,2.6c0.2,0.6,0.5,1,0.8,1.2c0.3,0.3,0.7,0.5,1.2,0.6c0.1,0,0.2,0.1,0.3,0.1
				s0.2,0.1,0.3,0.1s0.2,0.1,0.2,0.1c0.1,0,0.1,0,0.3,0c0.1,0,0.2,0,0.2,0s0.1-0.1,0.3,0c0.2,0,0.3,0,0.3,0c0.5,0,0.9,0,1.1,0.2
				c0.3,0,0.5,0.1,0.6,0.3c0.3,0.1,0.4,0.4,0.5,0.6c0.1,0.4,0,0.7,0,0.9c-0.1,0.3-0.4,0.4-0.7,0.4c-0.7,0.2-1.5,0.1-2.1-0.5l-1,1.6
				c0.5,0.4,1,0.7,1.7,0.8c0.7,0.2,1.3,0.1,1.8,0c0.9-0.3,1.6-0.7,2-1.4c0.4-0.7,0.5-1.5,0.2-2.3c-0.3-1.2-1.4-2-3-2.1
				c-0.1,0-0.4-0.1-0.7-0.1c-0.4-0.1-0.7-0.1-0.8,0c-0.2,0-0.4-0.1-0.7-0.2c-0.5-0.1-0.6-0.3-0.8-0.7c-0.3-0.9,0.1-1.5,1.1-1.8
				c0.9-0.4,1.9,0.1,2.9,1.2l1.5-1.5C64.2,555.5,63.5,555,62.6,554.8 M69.5,551.9l1.3,3.8c0.5,1.5,0.8,2.7,0.5,3.8
				c-0.2,1-0.7,1.7-1.5,1.8c-0.5,0.2-0.9,0.3-1.3,0.2l0.3,2.1c0.5,0,0.9-0.1,1.4-0.2c0.7-0.3,1-0.6,1.5-1.1c0.5-0.6,0.7-1.1,0.8-1.9
				l0.6,1.7l2.2-0.8L71.6,551L69.5,551.9z M81.6,551.7c-0.3,0.4-0.7,0.8-1.2,1.1l-1.7,0.8l-0.1-0.3c-0.4-0.8-0.3-1.5,0-2.3
				c0.3-0.6,0.8-1.2,1.5-1.5c0.4-0.2,0.8-0.2,1-0.1c0.4,0.2,0.6,0.4,0.7,0.7C81.9,550.8,81.9,551.2,81.6,551.7 M82,547.4
				c-0.8-0.2-1.7-0.2-2.5,0.2c-1.3,0.6-2.1,1.5-2.4,2.8l-0.8-1.1l-1.7,0.8l2.7,6.1c1.2,2.7,3,3.3,5.8,2.1c0.9-0.4,1.6-1,2.1-1.8
				c0.4-0.8,0.6-1.7,0.3-2.6l-2,0.4c0.1,1-0.3,1.8-1.2,2.1c-0.7,0.3-1.1,0.3-1.6,0.2s-0.8-0.4-1.1-1.1l-0.3-0.4l1.7-0.8
				c1.2-0.6,2.2-1.3,2.7-2.3c0.5-0.9,0.6-1.9,0.1-2.9C83.4,548.2,82.8,547.8,82,547.4 M94.2,550c-0.3,0.6-0.7,1-1.3,1.4
				c-0.7,0.4-1.3,0.4-1.9,0.3c-0.7-0.2-1.1-0.6-1.6-1.2L94,548C94.4,548.7,94.4,549.4,94.2,550 M93.6,543.4c-0.5-0.3-1-0.5-1.5-0.6
				c-0.6-0.1-1-0.1-1.7-0.1s-1.2,0.3-1.9,0.6c-1,0.6-1.7,1.2-2.1,1.9s-0.6,1.8-0.5,3l2-0.2c0-0.7,0.1-1.2,0.4-1.8
				c0.4-0.6,0.7-0.9,1.3-1.2c0.8-0.4,1.4-0.5,2.1-0.2s1.3,0.9,1.7,1.5l-6.9,3.6l0.4,0.8c0.3,0.4,0.5,0.9,0.9,1.2
				c0.4,0.4,0.7,0.7,1.2,1s0.9,0.5,1.5,0.6c0.5,0.1,1,0.1,1.6,0c0.7,0,1.2-0.3,1.8-0.6c0.7-0.4,1.1-0.7,1.5-1.2s0.7-0.9,0.8-1.5
				c0.1-0.6,0.2-1,0.3-1.6c0-0.6-0.1-1.1-0.2-1.6c-0.2-0.5-0.3-1-0.6-1.4c-0.2-0.5-0.5-1-0.9-1.2C94.4,544,94.1,543.8,93.6,543.4
				 M103.2,542.4l-3.5-5.4l-2,1.3l3.5,5.4l1,9.7l2.1-1.4l-0.9-6.9l5.8,3.7l2.1-1.4L103.2,542.4z M122.3,534.5c0.2,1.1-0.1,2-0.9,2.7
				c-0.8,0.6-1.7,0.8-2.7,0.4c-1-0.4-2.1-1.3-3.2-2.7c-1.2-1.4-1.8-2.7-2-3.7c-0.3-1.1,0.1-2,0.9-2.6s1.7-0.8,2.8-0.4
				c1,0.4,2.1,1.3,3.2,2.7C121.5,532,122.1,533.5,122.3,534.5 M117.4,525.8c-1.6-0.5-3.1-0.2-4.3,1c-1.4,1.2-1.9,2.5-1.8,4.1
				c0.1,1.7,0.9,3.4,2.5,5.3c1.5,1.8,3.1,3,4.7,3.5s3.1,0.2,4.4-1c1.4-1.2,1.9-2.5,1.8-4.1c-0.1-1.7-1-3.3-2.6-5.2
				C120.5,527.5,119,526.4,117.4,525.8 M125.6,516.5c-1.1,0.1-2.2,0.5-3,1.4c-1.1,1.1-1.6,2.2-1.4,3.4c0.1,1.3,0.6,2.5,1.7,3.5
				c1.1,1.1,2.2,1.7,3.4,1.8c1.3,0.1,2.4-0.4,3.4-1.4c0.5-0.5,1-1.3,0.9-2l2.3,3l-3.9,3.9l1.6,1.4l5.3-5.3l-5.4-6.5l-1.2,0.8
				c0.2,1.3-0.2,2.3-0.9,3.2c-0.5,0.5-1.1,0.8-1.9,0.7c-0.7-0.1-1.3-0.5-1.9-1c-0.6-0.7-1-1.3-1.1-2c-0.1-0.8,0.1-1.4,0.8-1.9
				c0.5-0.5,1-0.6,1.6-0.7c0.7,0,1.2,0.2,2,0.7l1.3-1.7C127.8,516.8,126.7,516.5,125.6,516.5"/>
		</g>
	</g>
</g>
</svg>
