<?xml version="1.0" encoding="utf-8"?>
<!-- Generator: Adobe Illustrator 19.0.0, SVG Export Plug-In . SVG Version: 6.00 Build 0)  -->
<svg version="1.1" id="Layer_1" xmlns="http://www.w3.org/2000/svg" xmlns:xlink="http://www.w3.org/1999/xlink" x="0px" y="0px"
	 viewBox="-199 201 200 200" style="enable-background:new -199 201 200 200;" xml:space="preserve">
<style type="text/css">
	.st0{display:none;stroke:#000000;stroke-miterlimit:10;}
	.st1{display:none;}
	.st2{clip-path:url(#SVGID_2_);}
	.st3{fill:none;stroke:#FFFFFF;stroke-width:1.5;stroke-linecap:round;stroke-linejoin:round;stroke-dasharray:0,5.891;}
	.st4{clip-path:url(#SVGID_4_);}
	.st5{clip-path:url(#SVGID_6_);}
	.st6{clip-path:url(#SVGID_8_);}
	.st7{clip-path:url(#SVGID_10_);}
	.st8{fill:none;stroke:#FFFFFF;stroke-width:1.5;stroke-linecap:round;stroke-linejoin:round;}
	.st9{clip-path:url(#SVGID_12_);}
	.st10{fill:none;stroke:#FFFFFF;stroke-width:1.5;stroke-linecap:round;stroke-linejoin:round;stroke-dasharray:0,6.145;}
	.st11{clip-path:url(#SVGID_14_);}
	.st12{clip-path:url(#SVGID_16_);}
	.st13{clip-path:url(#SVGID_18_);}
	.st14{clip-path:url(#SVGID_20_);}
	.st15{clip-path:url(#SVGID_22_);}
	.st16{fill:#FFFFFF;}
	.st17{clip-path:url(#SVGID_24_);}
	.st18{clip-path:url(#SVGID_26_);}
	.st19{fill:#D0D2D3;}
</style>
<rect x="-202.4" y="197.6" class="st0" width="206.9" height="206.9"/>
<rect id="XMLID_147_" x="-199" y="201" class="st1" width="200" height="200"/>
<g>
	<g>
		<defs>
			<rect id="SVGID_1_" x="-202.4" y="197.6" width="206.9" height="206.9"/>
		</defs>
		<clipPath id="SVGID_2_">
			<use xlink:href="#SVGID_1_"  style="overflow:visible;"/>
		</clipPath>
		<g id="XMLID_225_" class="st2">
			<path class="st3" d="M-93.1,387.1c43.9-3,78.8-38.8,80.3-83.1"/>
		</g>
	</g>
	<g>
		<defs>
			<rect id="SVGID_3_" x="-202.4" y="197.6" width="206.9" height="206.9"/>
		</defs>
		<clipPath id="SVGID_4_">
			<use xlink:href="#SVGID_3_"  style="overflow:visible;"/>
		</clipPath>
		<g id="XMLID_224_" class="st4">
			<path class="st3" d="M-12.9,295.1c-3-43.9-38.8-78.8-83.1-80.3"/>
		</g>
	</g>
	<g>
		<defs>
			<rect id="SVGID_5_" x="-202.4" y="197.6" width="206.9" height="206.9"/>
		</defs>
		<clipPath id="SVGID_6_">
			<use xlink:href="#SVGID_5_"  style="overflow:visible;"/>
		</clipPath>
		<g id="XMLID_223_" class="st5">
			<path class="st3" d="M-104.9,214.9c-43.9,3-78.8,38.8-80.3,83.1"/>
		</g>
	</g>
	<g>
		<defs>
			<rect id="SVGID_7_" x="-202.4" y="197.6" width="206.9" height="206.9"/>
		</defs>
		<clipPath id="SVGID_8_">
			<use xlink:href="#SVGID_7_"  style="overflow:visible;"/>
		</clipPath>
		<g id="XMLID_222_" class="st6">
			<path class="st3" d="M-185.1,306.9c3,43.9,38.8,78.8,83.1,80.3"/>
		</g>
	</g>
	<g>
		<defs>
			<rect id="SVGID_9_" x="-202.4" y="197.6" width="206.9" height="206.9"/>
		</defs>
		<clipPath id="SVGID_10_">
			<use xlink:href="#SVGID_9_"  style="overflow:visible;"/>
		</clipPath>
		<g class="st7">
			<path class="st8" d="M-99,387.3L-99,387.3 M-185.3,301L-185.3,301 M-99,214.8L-99,214.8 M-12.8,301L-12.8,301"/>
		</g>
	</g>
	<g>
		<defs>
			<rect id="SVGID_11_" x="-202.4" y="197.6" width="206.9" height="206.9"/>
		</defs>
		<clipPath id="SVGID_12_">
			<use xlink:href="#SVGID_11_"  style="overflow:visible;"/>
		</clipPath>
		<g id="XMLID_217_" class="st9">
			<path class="st10" d="M-92.9,363.3c30.7-3,54.9-28.1,56.4-59.2"/>
		</g>
	</g>
	<g>
		<defs>
			<rect id="SVGID_13_" x="-202.4" y="197.6" width="206.9" height="206.9"/>
		</defs>
		<clipPath id="SVGID_14_">
			<use xlink:href="#SVGID_13_"  style="overflow:visible;"/>
		</clipPath>
		<g id="XMLID_216_" class="st11">
			<path class="st10" d="M-36.7,294.9c-3-30.7-28.1-54.9-59.2-56.4"/>
		</g>
	</g>
	<g>
		<defs>
			<rect id="SVGID_15_" x="-202.4" y="197.6" width="206.9" height="206.9"/>
		</defs>
		<clipPath id="SVGID_16_">
			<use xlink:href="#SVGID_15_"  style="overflow:visible;"/>
		</clipPath>
		<g id="XMLID_215_" class="st12">
			<path class="st10" d="M-105.1,238.7c-30.7,3-54.9,28.1-56.4,59.2"/>
		</g>
	</g>
	<g>
		<defs>
			<rect id="SVGID_17_" x="-202.4" y="197.6" width="206.9" height="206.9"/>
		</defs>
		<clipPath id="SVGID_18_">
			<use xlink:href="#SVGID_17_"  style="overflow:visible;"/>
		</clipPath>
		<g id="XMLID_214_" class="st13">
			<path class="st10" d="M-161.3,307.1c3,30.7,28.1,54.9,59.2,56.4"/>
		</g>
	</g>
	<g>
		<defs>
			<rect id="SVGID_19_" x="-202.4" y="197.6" width="206.9" height="206.9"/>
		</defs>
		<clipPath id="SVGID_20_">
			<use xlink:href="#SVGID_19_"  style="overflow:visible;"/>
		</clipPath>
		<g class="st14">
			<path class="st8" d="M-99,363.6L-99,363.6 M-161.6,301L-161.6,301 M-99,238.4L-99,238.4 M-36.4,301L-36.4,301"/>
		</g>
	</g>
	<g>
		<defs>
			<rect id="SVGID_21_" x="-202.4" y="197.6" width="206.9" height="206.9"/>
		</defs>
		<clipPath id="SVGID_22_">
			<use xlink:href="#SVGID_21_"  style="overflow:visible;"/>
		</clipPath>
		<g class="st15">
			<path class="st16" d="M-62,309.9v2.7c0,0.5,0.1,0.9,0.4,1.2c0.3,0.3,0.6,0.4,1.1,0.4c0.3,0,0.6-0.1,0.8-0.2l-0.2-0.7
				c-0.2,0.1-0.3,0.2-0.6,0.2c-0.2,0-0.4-0.1-0.5-0.2c-0.1-0.1-0.2-0.3-0.2-0.6v-2.8h1.3v-0.8h-1.3v-2l-0.8,0.5v1.5h-0.9v0.8H-62z
				 M-67.3,314.2v-2.1c0-0.7,0.2-1.2,0.5-1.6s0.7-0.6,1.1-0.6c0.6,0,0.9,0.3,0.9,1v3.3h0.8v-3.5c0-0.5-0.1-0.9-0.4-1.2
				c-0.3-0.3-0.6-0.4-1.1-0.4c-0.4,0-0.7,0.1-1,0.3c-0.3,0.2-0.6,0.4-0.7,0.8v-3H-68v7.1h0.7V314.2z M-72.1,310.1
				c0.2-0.2,0.4-0.3,0.7-0.3c0.3,0,0.5,0.1,0.7,0.3c0.2,0.2,0.3,0.4,0.3,0.7c0,0.3-0.1,0.5-0.3,0.7c-0.2,0.2-0.4,0.2-0.7,0.2
				c-0.3,0-0.5-0.1-0.7-0.2c-0.2-0.2-0.3-0.4-0.3-0.7C-72.4,310.5-72.3,310.2-72.1,310.1 M-72.4,313.9c0.2,0,0.3,0,0.4,0h1
				c0.6,0,0.9,0.2,0.9,0.8c0,0.3-0.1,0.5-0.3,0.7c-0.2,0.2-0.5,0.2-0.9,0.2s-0.7-0.1-1-0.3c-0.2-0.2-0.3-0.4-0.3-0.7
				C-72.7,314.3-72.6,314.1-72.4,313.9 M-73,315.9c0.4,0.3,0.9,0.4,1.5,0.4c0.6,0,1.2-0.1,1.6-0.4c0.4-0.3,0.6-0.7,0.6-1.3
				c0-0.4-0.1-0.8-0.4-1c-0.3-0.2-0.7-0.4-1.2-0.4h-1.2c-0.4,0-0.6-0.1-0.6-0.4c0-0.2,0.1-0.4,0.3-0.5c0.2,0.1,0.5,0.2,0.9,0.2
				c0.5,0,0.9-0.2,1.3-0.5c0.3-0.3,0.5-0.7,0.5-1.2c0-0.4-0.1-0.7-0.2-0.9l0.7-0.4l-0.4-0.7l-0.9,0.5c-0.3-0.2-0.6-0.2-0.9-0.2
				c-0.5,0-0.9,0.2-1.3,0.5c-0.3,0.3-0.5,0.7-0.5,1.2c0,0.4,0.1,0.8,0.4,1.1c-0.4,0.2-0.6,0.5-0.6,0.9c0,0.3,0.1,0.6,0.3,0.8
				c-0.3,0.3-0.5,0.6-0.5,1.1C-73.5,315.2-73.3,315.6-73,315.9 M-75,309.1h-0.8v5.1h0.8V309.1z M-75.9,308.2
				c0.1,0.1,0.3,0.2,0.4,0.2c0.2,0,0.3-0.1,0.5-0.2c0.1-0.1,0.2-0.3,0.2-0.4c0-0.2-0.1-0.3-0.2-0.5c-0.1-0.1-0.3-0.2-0.5-0.2
				s-0.3,0.1-0.4,0.2c-0.1,0.1-0.2,0.3-0.2,0.5C-76.1,307.9-76,308.1-75.9,308.2 M-80.8,314.2v-2.1c0-0.7,0.1-1.2,0.4-1.6
				s0.6-0.6,1-0.6c0.6,0,0.9,0.3,0.9,1v3.3h0.8v-3.6c0-0.5-0.1-0.9-0.4-1.2c-0.3-0.3-0.6-0.4-1.1-0.4c-0.7,0-1.3,0.3-1.7,1v-0.9
				h-0.8v5.1C-81.7,314.2-80.8,314.2-80.8,314.2z M-88.4,310.1c0.2-0.2,0.4-0.3,0.7-0.3c0.3,0,0.5,0.1,0.7,0.3
				c0.2,0.2,0.3,0.4,0.3,0.7c0,0.3-0.1,0.5-0.3,0.7c-0.2,0.2-0.4,0.2-0.7,0.2c-0.3,0-0.5-0.1-0.7-0.2c-0.2-0.2-0.3-0.4-0.3-0.7
				C-88.6,310.5-88.5,310.2-88.4,310.1 M-88.7,313.9c0.2,0,0.3,0,0.4,0h1c0.6,0,0.9,0.2,0.9,0.8c0,0.3-0.1,0.5-0.3,0.7
				c-0.2,0.2-0.5,0.2-0.9,0.2s-0.7-0.1-1-0.3c-0.2-0.2-0.3-0.4-0.3-0.7C-89,314.3-88.9,314.1-88.7,313.9 M-89.2,315.9
				c0.4,0.3,0.9,0.4,1.6,0.4c0.6,0,1.2-0.1,1.6-0.4c0.4-0.3,0.6-0.7,0.6-1.3c0-0.4-0.1-0.8-0.4-1c-0.3-0.2-0.7-0.4-1.2-0.4h-1.2
				c-0.4,0-0.6-0.1-0.6-0.4c0-0.2,0.1-0.4,0.3-0.5c0.2,0.1,0.5,0.2,0.9,0.2c0.5,0,0.9-0.2,1.3-0.5c0.3-0.3,0.5-0.7,0.5-1.2
				c0-0.4-0.1-0.7-0.3-0.9l0.7-0.4l-0.4-0.7l-0.9,0.5c-0.3-0.2-0.6-0.2-0.9-0.2c-0.5,0-0.9,0.2-1.3,0.5c-0.3,0.3-0.5,0.7-0.5,1.2
				c0,0.4,0.1,0.8,0.4,1.1c-0.4,0.2-0.6,0.5-0.6,0.9c0,0.3,0.1,0.6,0.3,0.8c-0.3,0.3-0.5,0.6-0.5,1.1
				C-89.8,315.2-89.6,315.6-89.2,315.9 M-94.4,314.2v-2.1c0-0.7,0.1-1.2,0.4-1.6s0.6-0.6,1-0.6c0.6,0,0.9,0.3,0.9,1v3.3h0.8v-3.6
				c0-0.5-0.1-0.9-0.4-1.2c-0.3-0.3-0.6-0.4-1.1-0.4c-0.7,0-1.3,0.3-1.7,1v-0.9h-0.8v5.1C-95.3,314.2-94.4,314.2-94.4,314.2z
				 M-97.1,309.1h-0.8v5.1h0.8V309.1z M-98,308.2c0.1,0.1,0.3,0.2,0.4,0.2c0.2,0,0.3-0.1,0.5-0.2c0.1-0.1,0.2-0.3,0.2-0.4
				c0-0.2-0.1-0.3-0.2-0.5c-0.1-0.1-0.3-0.2-0.5-0.2s-0.3,0.1-0.4,0.2c-0.1,0.1-0.2,0.3-0.2,0.5C-98.1,307.9-98.1,308.1-98,308.2
				 M-102.9,314.2v-2.1c0-0.7,0.1-1.2,0.4-1.6s0.6-0.6,1-0.6c0.6,0,0.9,0.3,0.9,1v3.3h0.8v-3.6c0-0.5-0.1-0.9-0.4-1.2
				c-0.3-0.3-0.6-0.4-1.1-0.4c-0.7,0-1.3,0.3-1.7,1v-0.9h-0.8v5.1C-103.8,314.2-102.9,314.2-102.9,314.2z M-108.3,310.2
				c0.2-0.2,0.5-0.3,0.9-0.3s0.7,0.1,0.9,0.3c0.2,0.2,0.4,0.5,0.5,0.9h-2.8C-108.7,310.7-108.6,310.4-108.3,310.2 M-109.1,313.5
				c0.4,0.5,1,0.8,1.7,0.8c0.5,0,1-0.1,1.3-0.3s0.6-0.6,0.9-1.1l-0.7-0.3c-0.1,0.3-0.3,0.6-0.5,0.7c-0.2,0.1-0.5,0.2-0.9,0.2
				s-0.8-0.2-1-0.5c-0.2-0.3-0.4-0.7-0.4-1.2h3.7v-0.4c0-0.7-0.2-1.2-0.6-1.7s-1-0.7-1.7-0.7s-1.3,0.3-1.7,0.8
				c-0.4,0.5-0.6,1.1-0.6,1.8C-109.7,312.4-109.5,313-109.1,313.5 M-113.1,309.8c0.4,0,0.8,0.2,1.1,0.5c0.3,0.3,0.4,0.8,0.4,1.3
				s-0.1,1-0.4,1.3c-0.3,0.3-0.6,0.5-1.1,0.5s-0.8-0.2-1.1-0.5c-0.3-0.3-0.4-0.8-0.4-1.3c0-0.6,0.1-1,0.4-1.3
				C-114,310-113.6,309.8-113.1,309.8 M-114.5,316.3v-2.7c0.1,0.1,0.3,0.3,0.6,0.5c0.3,0.1,0.6,0.2,0.9,0.2c0.7,0,1.3-0.2,1.7-0.7
				c0.4-0.5,0.6-1.1,0.6-1.9c0-0.8-0.2-1.4-0.6-1.9s-0.9-0.7-1.7-0.7c-0.3,0-0.6,0.1-0.9,0.2c-0.3,0.1-0.5,0.3-0.6,0.5v-0.6h-0.8
				v7.1H-114.5z M-120.4,310.4c0.3-0.4,0.7-0.6,1.2-0.6s0.9,0.2,1.1,0.6c0.3,0.4,0.4,0.8,0.4,1.3s-0.1,0.9-0.4,1.3
				c-0.3,0.4-0.6,0.5-1.1,0.5s-0.9-0.2-1.2-0.5c-0.3-0.4-0.4-0.8-0.4-1.3S-120.7,310.8-120.4,310.4 M-121,313.5
				c0.4,0.5,1,0.8,1.8,0.8c0.7,0,1.3-0.3,1.8-0.8c0.4-0.5,0.7-1.1,0.7-1.8c0-0.7-0.2-1.3-0.7-1.8c-0.4-0.5-1-0.8-1.8-0.8
				c-0.7,0-1.3,0.3-1.8,0.8c-0.4,0.5-0.7,1.1-0.7,1.8C-121.7,312.4-121.5,313-121,313.5 M-127.3,314.2v-1.9c0-0.8,0.1-1.4,0.4-1.8
				c0.3-0.4,0.6-0.7,1-0.7c0.2,0,0.4,0,0.6,0.1l0.2-0.8c-0.2-0.1-0.4-0.2-0.7-0.2c-0.3,0-0.6,0.1-0.9,0.3c-0.3,0.2-0.5,0.4-0.6,0.7
				V309h-0.8v5.1h0.8V314.2z M-133.2,310.4c0.3-0.4,0.7-0.6,1.2-0.6s0.9,0.2,1.1,0.6c0.3,0.4,0.4,0.8,0.4,1.3s-0.1,0.9-0.4,1.3
				c-0.3,0.4-0.7,0.5-1.1,0.5c-0.5,0-0.9-0.2-1.2-0.5c-0.3-0.4-0.4-0.8-0.4-1.3S-133.5,310.8-133.2,310.4 M-133.8,313.5
				c0.4,0.5,1,0.8,1.8,0.8c0.7,0,1.3-0.3,1.8-0.8c0.4-0.5,0.7-1.1,0.7-1.8c0-0.7-0.2-1.3-0.7-1.8c-0.4-0.5-1-0.8-1.8-0.8
				c-0.7,0-1.3,0.3-1.8,0.8c-0.4,0.5-0.7,1.1-0.7,1.8C-134.5,312.4-134.2,313-133.8,313.5 M-137.5,309.9v4.3h0.8v-4.3h1.2v-0.8h-1.2
				v-0.3c0-0.3,0.1-0.6,0.2-0.7c0.1-0.2,0.3-0.2,0.6-0.2c0.2,0,0.4,0,0.6,0.1l0.2-0.7c-0.2-0.1-0.4-0.2-0.7-0.2
				c-0.5,0-0.9,0.1-1.2,0.4c-0.3,0.3-0.4,0.7-0.4,1.3v0.3h-0.7v0.8L-137.5,309.9L-137.5,309.9z"/>
		</g>
	</g>
	<g>
		<defs>
			<rect id="SVGID_23_" x="-202.4" y="197.6" width="206.9" height="206.9"/>
		</defs>
		<clipPath id="SVGID_24_">
			<use xlink:href="#SVGID_23_"  style="overflow:visible;"/>
		</clipPath>
		<g class="st17">
			<path class="st16" d="M-80.1,285.6h0.7c1.7,0,2.6,1.2,2.6,3.5c0,2.3-0.9,3.7-2.8,3.7h-0.5C-80.1,292.8-80.1,285.6-80.1,285.6z
				 M-78.5,297.8c-0.8-0.1-1.5-0.4-1.5-1.9v-2.7h1.2c3.5,0,5.6-1.8,5.6-4.1c0-2.2-1.8-3.9-5.4-3.9h-6.1v0.2c0.7,0.1,1.4,0.4,1.4,1.8
				v8.7c0,1.5-0.7,1.8-1.4,1.9v0.2h6.3L-78.5,297.8L-78.5,297.8z M-92.4,298.2l3.3-8.8c1.1-2.9,1.9-3.9,2.9-4v-0.2h-4.7v0.2
				c1.8,0.2,2.2,1.5,1.1,4.5l-1.7,4.5l-2.2-6.1c-0.8-2.1-0.5-2.7,0.6-2.9v-0.2h-6.4v0.2c0.7,0.2,1.3,0.7,1.8,1.9l4.2,10.9H-92.4z
				 M-100.6,294.1c0-4.6-7.2-3.9-7.2-7.1c0-1.3,1.2-1.9,2.3-1.9c1.7,0,2.6,1.3,3,3.8h0.3l0.9-3.3c-1.1-0.5-2.5-0.9-4.1-0.9
				c-2.9,0-4.8,1.9-4.8,4.1c0,4.4,6.9,4,6.9,7.1c0,1.1-1,1.9-2.4,1.9c-1.5,0-2.9-1-3.7-4.3h-0.3l-0.8,3.8c0.8,0.5,2.8,0.9,4.6,0.9
				C-102.6,298.3-100.6,296.4-100.6,294.1 M-118.5,297.8c-0.7-0.1-1.4-0.5-1.4-1.9v-3.2h1l2.7,5.3h4.6v-0.2
				c-0.7-0.2-1.3-0.6-2.1-2.2l-1.8-3.5c1.5-0.7,2.4-1.9,2.4-3.3c0-2-1.8-3.6-5.2-3.6h-6.4v0.2c0.7,0.1,1.4,0.5,1.4,1.9v8.6
				c0,1.5-0.7,1.9-1.4,1.9v0.2h6.2C-118.5,298-118.5,297.8-118.5,297.8z M-119.9,285.6h0.9c1.6,0,2.4,1.1,2.4,3.3
				c0,2.1-0.9,3.4-2.6,3.4h-0.7C-119.9,292.3-119.9,285.6-119.9,285.6z"/>
		</g>
	</g>
	<g>
		<defs>
			<rect id="SVGID_25_" x="-202.4" y="197.6" width="206.9" height="206.9"/>
		</defs>
		<clipPath id="SVGID_26_">
			<use xlink:href="#SVGID_25_"  style="overflow:visible;"/>
		</clipPath>
		<g class="st18">
			<path class="st19" d="M-26.4,316.4c-0.3,0.2-0.4,0.4-0.5,0.7c-0.1,0.3,0,0.6,0.1,0.8c0.2,0.3,0.4,0.4,0.7,0.5s0.6,0,0.8-0.2
				c0.3-0.2,0.4-0.4,0.5-0.7s0-0.6-0.2-0.9s-0.4-0.4-0.7-0.5C-25.8,316.2-26.1,316.2-26.4,316.4 M-24.2,305.5
				c0.2,0.2,0.3,0.6,0.3,0.9c0,0.4-0.2,0.7-0.4,0.9c-0.3,0.2-0.6,0.3-1,0.3s-0.7-0.2-1-0.4c-0.2-0.3-0.4-0.6-0.3-0.9
				c0-0.4,0.2-0.7,0.5-0.9c0.3-0.2,0.6-0.3,1-0.3C-24.8,305.1-24.5,305.2-24.2,305.5 M-27,304.5c-0.5,0.4-0.8,1-0.8,1.7
				c0,0.7,0.2,1.3,0.6,1.8c0.4,0.5,1,0.8,1.7,0.8s1.3-0.1,1.8-0.5c0.5-0.4,0.8-1,0.8-1.6c0-0.1,0-0.2,0-0.3l2.7,1.8l0.1-1.3
				l-3.7-2.5c-0.4-0.3-0.8-0.4-1.3-0.4C-25.9,303.9-26.5,304.1-27,304.5 M-21.6,300.8l-5.9,0.1v1.1l7.5-0.1v-0.5l-1.3-2.1h-1.2
				L-21.6,300.8z M-22,293.7c0.5,0.2,0.8,0.6,0.8,1.1s-0.2,0.9-0.6,1.2c-0.5,0.3-1.1,0.5-2,0.6c-0.9,0.1-1.6,0-2.1-0.2
				s-0.8-0.6-0.8-1.1s0.2-0.9,0.6-1.2c0.5-0.3,1.1-0.5,2-0.6C-23.2,293.4-22.5,293.5-22,293.7 M-27,293.3c-0.6,0.5-0.9,1.2-0.8,2.1
				c0.1,0.9,0.5,1.5,1.2,1.9c0.7,0.4,1.7,0.6,2.9,0.4c1.2-0.1,2.1-0.4,2.7-0.9c0.6-0.5,0.9-1.2,0.8-2.1c-0.1-0.9-0.5-1.5-1.2-1.9
				c-0.7-0.4-1.7-0.5-2.9-0.4C-25.4,292.5-26.3,292.8-27,293.3 M-28.1,291.2l1-0.2l-0.5-2.9l3,1.7c0.6,0.3,1.2,0.4,1.8,0.3
				c0.7-0.1,1.1-0.4,1.4-0.9c0.3-0.5,0.4-1,0.3-1.6c-0.1-0.6-0.4-1.1-0.8-1.4c-0.4-0.3-0.9-0.5-1.5-0.4v1.1c0.4,0,0.6,0.1,0.9,0.2
				c0.2,0.2,0.4,0.4,0.4,0.7c0.1,0.3,0,0.6-0.2,0.8c-0.2,0.2-0.4,0.3-0.8,0.4c-0.2,0-0.5,0-0.7,0c-0.2-0.1-0.5-0.2-0.8-0.3l-3.9-2.2
				l-0.5,0.1L-28.1,291.2z M-27.1,278c0.4,0.2,0.7,0.5,0.8,0.9s0.1,0.8-0.2,1.2s-0.6,0.6-1.1,0.7c-0.5,0.1-0.9,0.1-1.3,0
				c-0.4-0.1-0.7-0.4-0.8-0.9c-0.1-0.4-0.1-0.8,0.2-1.2c0.3-0.3,0.6-0.6,1.1-0.7C-27.9,277.9-27.5,277.9-27.1,278 M-30.6,280.2
				c0.2,0.8,0.7,1.3,1.3,1.6c0.7,0.3,1.4,0.4,2.1,0.1s1.3-0.6,1.7-1.3c0.4-0.6,0.5-1.3,0.2-2.1c-0.2-0.8-0.7-1.3-1.3-1.6
				c-0.6-0.3-1.3-0.4-2.1-0.1c-0.8,0.2-1.3,0.6-1.7,1.3C-30.8,278.7-30.9,279.4-30.6,280.2 M-28.5,272.8l-2.4,0.9
				c-0.6,0.2-1,0.5-1.2,1c-0.2,0.4-0.2,0.9,0,1.4c0.1,0.3,0.3,0.6,0.5,0.7l0.8-0.6c-0.2-0.1-0.3-0.3-0.3-0.4c-0.2-0.4,0-0.8,0.6-1
				l2.5-0.9l0.5,1.3l0.9-0.4l-0.5-1.3l2-0.8l-1.1-0.8l-1.4,0.5l-0.3-0.8l-0.9,0.3L-28.5,272.8z M-32.9,265.7
				c0.3,0.1,0.6,0.3,0.8,0.6c0.2,0.3,0.2,0.7,0.1,1c-0.1,0.3-0.4,0.6-0.7,0.8c-0.4,0.2-0.7,0.2-1.1,0.2c-0.3-0.1-0.6-0.3-0.8-0.6
				c-0.2-0.3-0.2-0.7-0.1-1c0.1-0.3,0.4-0.6,0.7-0.8C-33.6,265.7-33.3,265.6-32.9,265.7 M-35.8,266.3c-0.2,0.6-0.1,1.2,0.2,1.8
				s0.8,1,1.4,1.2c0.6,0.2,1.3,0.1,1.9-0.2c0.6-0.3,1-0.8,1.2-1.4c0.2-0.6,0.1-1.2-0.2-1.8c-0.1-0.1-0.1-0.2-0.2-0.2l3.3,0.1
				l-0.6-1.1l-4.5-0.2c-0.5,0-0.9,0.1-1.4,0.3C-35.1,265.2-35.5,265.7-35.8,266.3 M-36.2,260.2c0.3,0.1,0.6,0.3,0.8,0.6
				c0.2,0.3,0.3,0.6,0.2,1c-0.1,0.3-0.3,0.6-0.7,0.8c-0.3,0.2-0.7,0.3-1,0.2c-0.4-0.1-0.6-0.2-0.8-0.6c-0.2-0.3-0.2-0.6-0.1-1
				c0.1-0.3,0.3-0.6,0.7-0.8C-36.9,260.2-36.5,260.1-36.2,260.2 M-39,260.9c-0.1,0.6,0,1.2,0.3,1.8c0.4,0.6,0.9,0.9,1.5,1.1
				c0.6,0.1,1.3,0,1.8-0.3c0.6-0.4,1-0.9,1.1-1.5c0.2-0.6,0.1-1.2-0.3-1.8c-0.1-0.1-0.1-0.2-0.2-0.2l3.3-0.1l-0.7-1.1l-4.5,0.2
				c-0.5,0-0.9,0.2-1.3,0.4C-38.4,259.8-38.8,260.3-39,260.9 M-37.8,253.2c0.4,0,0.6,0.2,0.9,0.5c0.2,0.3,0.3,0.6,0.2,1
				c-0.1,0.3-0.3,0.6-0.6,0.9c-0.3,0.3-0.7,0.4-1,0.3c-0.3,0-0.6-0.2-0.9-0.5c-0.2-0.3-0.3-0.6-0.3-1c0.1-0.3,0.3-0.6,0.6-0.9
				C-38.5,253.3-38.1,253.2-37.8,253.2 M-40.5,254.2c-0.1,0.6,0.1,1.2,0.5,1.8c0.1,0.1,0.1,0.1,0.2,0.2l-3.2,0.4l0.8,1l4.4-0.6
				c0.5-0.1,0.9-0.2,1.3-0.5c0.6-0.4,0.9-1,1-1.6c0.1-0.6-0.1-1.2-0.5-1.8c-0.4-0.5-1-0.9-1.6-0.9c-0.6-0.1-1.2,0.1-1.8,0.5
				C-40.1,253.1-40.4,253.6-40.5,254.2 M-41.1,249.7l-4.4,3.9l0.8,0.8l5.6-5l-0.3-0.3l-2.3-0.7l-0.9,0.8L-41.1,249.7z M-49.5,245.3
				l0.6-0.8l-5.4-4.3l-0.6,0.8L-49.5,245.3z M-62.7,239.4l3.9-6.5l-1-0.6l-3.9,6.5L-62.7,239.4z M-66,232.9c0.3-0.1,0.6-0.1,0.9,0.1
				c0.3,0.2,0.5,0.4,0.7,0.7c0.1,0.3,0.1,0.6,0,0.9l-2.3-1.2C-66.6,233.1-66.3,233-66,232.9 M-68.5,235c0,0.3,0.1,0.5,0.1,0.8
				c0.1,0.2,0.2,0.5,0.4,0.7s0.5,0.4,0.8,0.6c0.5,0.3,1,0.4,1.4,0.3c0.4-0.1,0.9-0.3,1.4-0.6L-65,236c-0.2,0.2-0.5,0.3-0.8,0.3
				s-0.6,0-0.9-0.2c-0.4-0.2-0.6-0.5-0.7-0.8c-0.1-0.4,0-0.7,0.2-1.1l3.4,1.7l0.2-0.4c0.1-0.2,0.2-0.5,0.2-0.7
				c0.1-0.2,0.1-0.5,0.1-0.8s-0.1-0.5-0.2-0.8c-0.1-0.2-0.2-0.5-0.4-0.7s-0.5-0.4-0.8-0.6c-0.3-0.2-0.6-0.2-0.9-0.3
				c-0.3,0-0.6,0-0.8,0.1c-0.3,0.1-0.5,0.2-0.7,0.4c-0.2,0.2-0.4,0.3-0.6,0.5c-0.2,0.2-0.3,0.4-0.4,0.7c-0.1,0.2-0.2,0.5-0.3,0.7
				C-68.5,234.5-68.5,234.7-68.5,235 M-70.2,235.5l0.4-0.9l-2.4-1l3.8-2.8l0.2-0.4l-3.4-1.4l-0.4,0.9l2.1,0.9l-3.8,2.8l-0.2,0.4
				L-70.2,235.5z M-75.9,228.7l-0.8,2.4c-0.2,0.6-0.2,1.1,0,1.5c0.2,0.4,0.6,0.7,1.1,0.9c0.3,0.1,0.6,0.1,0.9,0.1v-1
				c-0.2,0-0.4,0-0.5,0c-0.5-0.1-0.6-0.5-0.4-1.1l0.8-2.5l1.3,0.4l0.3-0.9l-1.3-0.4l0.7-2.1l-1.3,0.3l-0.5,1.4l-0.8-0.3l-0.3,0.9
				L-75.9,228.7z M-79.1,232.3l2-7.3l-1.1-0.3l-2,7.3L-79.1,232.3z M-83.9,226.8c0.3-0.2,0.6-0.2,0.9-0.1c0.4,0.1,0.6,0.2,0.8,0.5
				c0.2,0.3,0.2,0.6,0.2,0.9l-2.6-0.6C-84.4,227.2-84.2,227-83.9,226.8 M-85.8,229.5c0.1,0.3,0.2,0.5,0.3,0.7
				c0.1,0.2,0.3,0.4,0.6,0.6c0.3,0.2,0.5,0.3,0.9,0.4c0.6,0.1,1.1,0.1,1.5,0c0.4-0.2,0.8-0.5,1.2-0.9l-0.8-0.6
				c-0.2,0.2-0.4,0.4-0.7,0.5c-0.3,0.1-0.6,0.1-0.9,0.1c-0.4-0.1-0.7-0.3-0.9-0.6c-0.2-0.3-0.2-0.7-0.1-1.1l3.7,0.8l0.1-0.5
				c0.1-0.2,0.1-0.5,0.1-0.7s-0.1-0.5-0.1-0.8c-0.1-0.3-0.2-0.5-0.3-0.7c-0.1-0.2-0.3-0.4-0.6-0.6c-0.2-0.2-0.5-0.3-0.9-0.3
				c-0.3-0.1-0.7-0.1-1,0c-0.3,0-0.6,0.1-0.8,0.3c-0.2,0.1-0.4,0.3-0.6,0.5c-0.2,0.2-0.3,0.4-0.4,0.7c-0.1,0.2-0.2,0.5-0.3,0.7
				c-0.1,0.3-0.1,0.5-0.1,0.8C-85.9,229-85.9,229.2-85.8,229.5 M-92.1,229.8l0.4-3.4l3,0.3l-0.4,3.4l1.2,0.1l0.9-7.5l-1.2-0.1
				l-0.3,2.9l-3-0.3l0.3-2.9l-1.2-0.1l-0.9,7.5L-92.1,229.8z M-99.9,225.1l0.1,4.4h1.1l-0.1-4.4h1.2v-1h-1.2v-0.4
				c0-0.6,0.2-0.9,0.7-0.9c0.2,0,0.4,0,0.6,0.1l0.2-0.9c-0.2-0.1-0.5-0.2-0.9-0.2c-0.6,0-1,0.2-1.3,0.5s-0.5,0.8-0.5,1.4v0.3h-0.7v1
				L-99.9,225.1z M-101.8,229.5l-0.3-7.5h-1.1l0.3,7.6L-101.8,229.5z M-108.5,226.1c0.2-0.4,0.6-0.6,1-0.7c0.5-0.1,0.8,0.1,1.1,0.4
				c0.3,0.3,0.5,0.7,0.5,1.2c0.1,0.5,0,0.9-0.2,1.3c-0.2,0.4-0.5,0.6-1,0.6c-0.5,0.1-0.8-0.1-1.1-0.4c-0.3-0.3-0.5-0.7-0.5-1.2
				C-108.8,226.9-108.8,226.5-108.5,226.1 M-107,230c0.8-0.1,1.4-0.4,1.8-1s0.6-1.3,0.5-2.1c-0.1-0.8-0.4-1.4-0.9-1.9
				s-1.2-0.7-2-0.6c-0.8,0.1-1.4,0.4-1.8,1c-0.4,0.6-0.6,1.3-0.5,2.1s0.4,1.4,0.9,1.9S-107.8,230.1-107,230 M-115.2,227.2
				c0.2-0.4,0.5-0.6,0.9-0.7s0.8,0,1.1,0.3c0.3,0.3,0.5,0.7,0.6,1.2s0.1,1-0.1,1.4c-0.2,0.4-0.5,0.6-0.9,0.7c-0.4,0.1-0.8,0-1.1-0.3
				c-0.3-0.3-0.5-0.7-0.6-1.2C-115.4,228-115.4,227.6-115.2,227.2 M-115.5,230.7c0.5,0.4,1.1,0.5,1.9,0.4c0.3-0.1,0.6-0.2,0.8-0.4
				c0.2-0.2,0.4-0.4,0.5-0.6l0.1,0.6l1.1-0.2l-1.4-7.5l-1.1,0.2l0.5,2.7c-0.2-0.1-0.4-0.3-0.7-0.3c-0.3-0.1-0.6-0.1-0.9-0.1
				c-0.8,0.1-1.3,0.5-1.6,1.1c-0.3,0.6-0.4,1.3-0.2,2.1C-116.3,229.6-116,230.3-115.5,230.7 M-121.3,232.7c0.4,0.2,0.8,0.2,1.2,0.1
				c0.3-0.1,0.6-0.3,0.9-0.5c0.2-0.3,0.4-0.6,0.5-0.9l0.3,0.9l1.1-0.3l-1.5-5.2l-1.1,0.2l0.6,2.1c0.2,0.7,0.2,1.3,0.1,1.7
				c-0.1,0.5-0.4,0.8-0.7,0.9c-0.5,0.2-0.9-0.1-1.1-0.7l-1-3.4l-1.1,0.3l1.1,3.7C-121.9,232.1-121.7,232.5-121.3,232.7
				 M-129.3,229.2l1.4-0.6c0.3-0.1,0.5-0.1,0.8-0.1c0.2,0.1,0.4,0.3,0.5,0.6c0.1,0.3,0.1,0.5,0,0.8c-0.1,0.2-0.3,0.4-0.6,0.5
				l-1.4,0.6L-129.3,229.2z M-126.9,235.1l-1.2-3.1l0.8-0.3l3.2,2.3l1.3-0.5l-3.3-2.4c0.4-0.3,0.6-0.6,0.7-1.1
				c0.1-0.4,0.1-0.9-0.1-1.3c-0.2-0.6-0.6-1-1.1-1.2s-1.1-0.2-1.7,0.1l-2.4,1l2.8,6.9L-126.9,235.1z M-135.9,234.6l2.1,3.9l1-0.5
				l-2.1-3.9l1-0.5l-0.5-0.9l-1,0.5l-0.2-0.3c-0.3-0.5-0.2-0.9,0.2-1.1c0.2-0.1,0.4-0.2,0.6-0.2l-0.2-0.9c-0.3,0-0.6,0.1-0.9,0.2
				c-0.5,0.3-0.8,0.6-1,1.1c-0.1,0.4-0.1,0.9,0.2,1.5l0.1,0.2l-0.3,0.3l0.5,0.9L-135.9,234.6z M-140.5,237.9c0-0.4,0.3-0.8,0.6-1
				c0.4-0.2,0.8-0.3,1.2-0.1c0.4,0.2,0.7,0.4,1,0.9c0.3,0.4,0.4,0.9,0.3,1.3c0,0.4-0.2,0.8-0.6,1c-0.4,0.2-0.8,0.3-1.2,0.1
				c-0.4-0.2-0.7-0.5-1-0.9C-140.4,238.8-140.5,238.4-140.5,237.9 M-137.4,240.8c0.7-0.4,1.1-1,1.2-1.7c0.1-0.7,0-1.4-0.4-2.1
				c-0.4-0.7-1-1.1-1.7-1.3s-1.4-0.1-2.1,0.3c-0.7,0.4-1.1,1-1.2,1.7c-0.1,0.7,0,1.4,0.4,2.1c0.4,0.7,1,1.1,1.7,1.3
				C-138.8,241.3-138.1,241.2-137.4,240.8 M-145.3,246.1c0.5,0,0.9-0.2,1.2-0.5c0.4-0.4,0.7-0.8,0.7-1.2c0.1-0.5-0.1-0.9-0.4-1.3
				c-0.2-0.2-0.4-0.4-0.6-0.4c-0.2-0.1-0.4-0.1-0.7-0.1c-0.1,0-0.1,0-0.1,0h-0.1h-0.1h-0.1c-0.1,0-0.1,0-0.1,0h-0.1
				c-0.1,0-0.1,0-0.1,0.1c-0.2,0.1-0.4,0.1-0.6,0.2c-0.1,0-0.2,0-0.4,0c-0.1,0-0.2-0.1-0.3-0.2c-0.1-0.1-0.1-0.3-0.1-0.4
				c0-0.1,0.1-0.3,0.2-0.4c0.3-0.2,0.6-0.3,1-0.2l0.1-0.9c-0.3-0.1-0.6-0.1-0.9-0.1c-0.3,0.1-0.6,0.2-0.8,0.4
				c-0.4,0.3-0.6,0.7-0.6,1.1c-0.1,0.4,0,0.8,0.3,1.1c0.4,0.5,1,0.7,1.8,0.4c0.1,0,0.2-0.1,0.4-0.1c0.2,0,0.3-0.1,0.4-0.1
				s0.2,0,0.3-0.1c0.2,0,0.4,0,0.5,0.2c0.3,0.4,0.3,0.7-0.1,1c-0.4,0.3-0.9,0.3-1.5,0l-0.4,1C-146.2,246-145.8,246.1-145.3,246.1
				 M-147.9,248.8l-1.4-1.5c-0.5-0.6-0.9-1.1-0.9-1.6c-0.1-0.5,0-0.9,0.3-1.2c0.2-0.2,0.4-0.3,0.6-0.3l-0.6-0.9
				c-0.2,0.1-0.4,0.2-0.6,0.4c-0.2,0.2-0.4,0.5-0.5,0.8c-0.1,0.3-0.1,0.7,0,1l-0.6-0.7l-0.8,0.8l3.7,4L-147.9,248.8z M-153.4,251.3
				c0-0.2,0.2-0.5,0.4-0.7l0.7-0.7l0.1,0.1c0.3,0.3,0.5,0.6,0.4,1c0,0.4-0.2,0.7-0.4,1c-0.1,0.2-0.3,0.2-0.5,0.2s-0.3-0.1-0.5-0.2
				C-153.3,251.8-153.4,251.5-153.4,251.3 M-152.7,253.3c0.4,0,0.8-0.2,1.1-0.6c0.5-0.5,0.7-1.1,0.6-1.8l0.6,0.4l0.6-0.7l-2.5-2.3
				c-1-1-2.1-0.9-3,0.1c-0.3,0.4-0.5,0.8-0.6,1.2c-0.1,0.5,0,0.9,0.3,1.3l0.9-0.6c-0.2-0.5-0.2-0.9,0.2-1.2c0.2-0.2,0.5-0.4,0.7-0.4
				s0.5,0.1,0.7,0.3l0.2,0.2l-0.6,0.7c-0.5,0.5-0.8,1-0.8,1.6c-0.1,0.5,0.1,1,0.5,1.3C-153.6,253.1-153.2,253.3-152.7,253.3
				 M-158.8,254.5c0-0.3,0.1-0.6,0.3-0.9c0.2-0.3,0.5-0.4,0.8-0.5c0.3,0,0.6,0,0.9,0.2l-1.6,2C-158.6,255.2-158.8,254.9-158.8,254.5
				 M-157.2,257.4c0.3,0,0.5,0.1,0.8,0c0.3,0,0.5-0.1,0.8-0.3c0.3-0.2,0.5-0.4,0.7-0.6c0.4-0.5,0.6-0.9,0.6-1.3
				c0-0.4-0.1-0.9-0.3-1.5l-0.9,0.5c0.1,0.3,0.2,0.6,0.2,0.9s-0.1,0.6-0.3,0.8c-0.3,0.3-0.6,0.5-0.9,0.5c-0.4,0-0.7-0.1-1.1-0.4
				l2.4-3l-0.4-0.3c-0.2-0.2-0.4-0.3-0.6-0.4c-0.2-0.1-0.5-0.2-0.7-0.2c-0.3,0-0.5,0-0.8,0s-0.5,0.1-0.8,0.3
				c-0.3,0.2-0.5,0.4-0.7,0.6c-0.2,0.3-0.4,0.5-0.5,0.8c-0.1,0.3-0.1,0.6-0.1,0.8c0,0.3,0.1,0.5,0.2,0.8c0.1,0.3,0.2,0.5,0.4,0.7
				c0.2,0.2,0.3,0.4,0.6,0.6c0.2,0.2,0.4,0.3,0.7,0.4C-157.6,257.2-157.5,257.4-157.2,257.4 M-161.4,259.9l2.7,1.8l0.6-1l-2.7-1.8
				l-2.4-4.1l-0.7,1l1.8,3l-3.4-0.5l-0.7,1L-161.4,259.9z M-168.6,267.3c-0.3-0.5-0.4-0.9-0.1-1.4c0.2-0.5,0.6-0.7,1.2-0.7
				c0.5,0,1.2,0.2,2,0.6c0.8,0.4,1.4,0.8,1.7,1.3c0.3,0.4,0.4,0.9,0.1,1.4c-0.2,0.5-0.6,0.7-1.2,0.7c-0.5,0-1.2-0.2-2-0.6
				C-167.7,268.2-168.3,267.7-168.6,267.3 M-164.6,270.2c0.8-0.1,1.4-0.6,1.8-1.3c0.4-0.8,0.4-1.5,0-2.2c-0.4-0.7-1.1-1.3-2.2-1.9
				c-1.1-0.5-2-0.7-2.8-0.6c-0.8,0.1-1.4,0.6-1.8,1.3c-0.4,0.8-0.4,1.5,0,2.2c0.4,0.7,1.1,1.3,2.2,1.9
				C-166.4,270.1-165.4,270.3-164.6,270.2 M-166.6,276c0.5-0.2,0.9-0.7,1.1-1.3c0.3-0.7,0.3-1.3,0-1.9c-0.3-0.6-0.8-1-1.4-1.3
				c-0.7-0.3-1.3-0.3-1.9-0.1c-0.6,0.2-1,0.6-1.3,1.3c-0.2,0.4-0.2,0.8,0,1.1l-1.7-0.8l1-2.6l-1-0.4l-1.4,3.4l3.7,2l0.4-0.6
				c-0.3-0.6-0.4-1.1-0.2-1.6c0.2-0.4,0.4-0.6,0.7-0.7c0.3-0.1,0.7-0.1,1.1,0.1s0.7,0.4,0.9,0.7c0.2,0.3,0.2,0.6,0,1
				c-0.1,0.3-0.3,0.5-0.6,0.6s-0.6,0.1-1,0l-0.2,1.1C-167.6,276.3-167.1,276.3-166.6,276 M-171.5,285.1c0.3-0.2,0.4-0.4,0.5-0.7
				c0.1-0.3,0-0.6-0.1-0.8c-0.2-0.3-0.4-0.4-0.7-0.5s-0.6,0-0.8,0.2c-0.3,0.2-0.4,0.4-0.5,0.7c-0.1,0.3,0,0.6,0.2,0.9
				c0.2,0.3,0.4,0.4,0.7,0.5C-172.1,285.3-171.8,285.2-171.5,285.1 M-173.7,295.9c-0.2-0.3-0.3-0.6-0.3-0.9c0-0.4,0.2-0.7,0.5-0.9
				c0.3-0.2,0.6-0.3,1.1-0.3c0.4,0,0.7,0.2,1,0.4c0.2,0.3,0.3,0.6,0.3,0.9c0,0.4-0.2,0.7-0.5,0.9c-0.3,0.2-0.6,0.3-1,0.3
				C-173.2,296.3-173.5,296.1-173.7,295.9 M-171,296.9c0.5-0.4,0.8-1,0.8-1.7c0.1-0.7-0.1-1.3-0.5-1.8c-0.4-0.5-1-0.8-1.7-0.8
				c-0.7-0.1-1.3,0.1-1.8,0.5s-0.8,0.9-0.8,1.6c0,0.1,0,0.2,0,0.3l-2.7-1.9l-0.1,1.3l3.6,2.6c0.4,0.3,0.8,0.4,1.3,0.5
				C-172.2,297.5-171.6,297.3-171,296.9 M-176.4,300.4l5.9,0.1v-1.1l-7.5-0.1v0.5l1.2,2.1h1.2L-176.4,300.4z M-176.1,307.6
				c-0.5-0.2-0.8-0.6-0.8-1.1s0.2-0.9,0.6-1.2c0.5-0.3,1.1-0.5,2-0.5c0.9-0.1,1.6,0,2.1,0.3c0.5,0.2,0.8,0.6,0.8,1.1
				s-0.2,0.9-0.6,1.2c-0.5,0.3-1.1,0.5-2,0.5S-175.6,307.8-176.1,307.6 M-171.1,308.1c0.6-0.5,0.9-1.2,0.9-2.1
				c-0.1-0.9-0.4-1.5-1.1-1.9s-1.7-0.6-2.9-0.5s-2.1,0.4-2.8,0.9c-0.6,0.5-0.9,1.2-0.9,2.1c0.1,0.9,0.4,1.5,1.1,1.9s1.7,0.6,2.9,0.5
				C-172.7,308.9-171.8,308.6-171.1,308.1 M-170,310.2l-1,0.2l0.5,2.9l-3-1.7c-0.6-0.3-1.2-0.4-1.8-0.3c-0.7,0.1-1.1,0.4-1.4,0.9
				s-0.4,1-0.3,1.6c0.1,0.6,0.4,1.1,0.8,1.4c0.4,0.3,0.9,0.5,1.5,0.4v-1.1c-0.4,0-0.6-0.1-0.9-0.2c-0.2-0.2-0.4-0.4-0.4-0.7
				c-0.1-0.3,0-0.6,0.2-0.8c0.2-0.2,0.4-0.3,0.8-0.4c0.2,0,0.5,0,0.7,0c0.2,0.1,0.5,0.2,0.8,0.3l3.9,2.2l0.5-0.1L-170,310.2z
				 M-171.1,323.5c-0.4-0.2-0.7-0.5-0.8-0.9c-0.1-0.4-0.1-0.8,0.2-1.2s0.6-0.6,1.1-0.7c0.5-0.1,0.9-0.1,1.3,0
				c0.4,0.1,0.7,0.4,0.8,0.9c0.1,0.4,0.1,0.8-0.2,1.2c-0.3,0.3-0.6,0.6-1.1,0.7C-170.2,323.6-170.7,323.6-171.1,323.5 M-167.5,321.3
				c-0.2-0.8-0.7-1.3-1.3-1.6c-0.7-0.3-1.4-0.4-2.1-0.1c-0.8,0.2-1.3,0.6-1.7,1.3c-0.4,0.6-0.4,1.3-0.2,2.1c0.2,0.8,0.7,1.3,1.3,1.6
				c0.6,0.3,1.4,0.4,2.1,0.1c0.8-0.2,1.3-0.6,1.7-1.3C-167.4,322.7-167.3,322-167.5,321.3 M-169.7,328.7l2.4-0.9
				c0.6-0.2,1-0.5,1.2-1c0.2-0.4,0.2-0.9,0-1.4c-0.1-0.3-0.3-0.6-0.5-0.7l-0.8,0.6c0.2,0.1,0.3,0.3,0.3,0.4c0.2,0.4,0,0.8-0.6,1
				l-2.5,0.9l-0.5-1.3l-0.9,0.3l0.6,1.4l-2,0.8l1.1,0.8l1.4-0.5l0.3,0.8l0.9-0.3L-169.7,328.7z M-165.4,335.7
				c-0.3-0.1-0.6-0.3-0.7-0.6c-0.2-0.3-0.2-0.7-0.1-1c0.1-0.3,0.4-0.6,0.8-0.8c0.4-0.2,0.7-0.2,1.1-0.1c0.3,0.1,0.6,0.3,0.8,0.6
				c0.2,0.3,0.2,0.7,0.1,1c-0.1,0.3-0.4,0.6-0.8,0.8C-164.7,335.8-165.1,335.8-165.4,335.7 M-162.6,335.2c0.2-0.6,0.2-1.2-0.1-1.9
				c-0.3-0.6-0.8-1-1.4-1.2c-0.6-0.2-1.2-0.1-1.9,0.2c-0.6,0.3-1.1,0.8-1.3,1.4c-0.2,0.6-0.2,1.2,0.1,1.8c0.1,0.1,0.1,0.2,0.2,0.2
				l-3.3-0.2l0.6,1.1l4.4,0.3c0.5,0,0.9-0.1,1.4-0.3C-163.2,336.3-162.8,335.8-162.6,335.2 M-162.1,341.4c-0.3-0.1-0.6-0.3-0.8-0.6
				c-0.2-0.3-0.3-0.6-0.2-1c0.1-0.3,0.3-0.6,0.7-0.8c0.3-0.2,0.7-0.3,1-0.2c0.3,0.1,0.6,0.2,0.8,0.6c0.2,0.3,0.2,0.6,0.1,1
				c-0.1,0.3-0.3,0.6-0.7,0.8C-161.4,341.3-161.8,341.4-162.1,341.4 M-159.3,340.6c0.1-0.6,0-1.2-0.3-1.8c-0.4-0.6-0.9-0.9-1.5-1.1
				c-0.6-0.1-1.3,0-1.8,0.3c-0.6,0.4-1,0.9-1.1,1.5c-0.2,0.6-0.1,1.2,0.3,1.8c0.1,0.1,0.1,0.2,0.2,0.2l-3.3,0.1l0.7,1.1l4.5-0.2
				c0.5,0,0.9-0.2,1.3-0.4C-159.9,341.7-159.5,341.2-159.3,340.6 M-160.6,348.4c-0.4,0-0.6-0.2-0.9-0.5c-0.2-0.3-0.3-0.6-0.2-1
				c0.1-0.3,0.3-0.6,0.6-0.9c0.3-0.3,0.7-0.4,1-0.3c0.3,0,0.6,0.2,0.9,0.5c0.2,0.3,0.3,0.6,0.3,1c-0.1,0.3-0.3,0.6-0.6,0.9
				C-159.9,348.3-160.2,348.4-160.6,348.4 M-157.8,347.3c0.1-0.6-0.1-1.2-0.5-1.8c-0.1-0.1-0.1-0.2-0.2-0.2l3.2-0.4l-0.8-1l-4.4,0.6
				c-0.5,0.1-0.9,0.2-1.3,0.5c-0.6,0.4-0.9,1-1,1.6c-0.1,0.6,0.1,1.2,0.5,1.8c0.4,0.5,1,0.9,1.6,0.9c0.6,0.1,1.2-0.1,1.8-0.5
				C-158.3,348.5-157.9,348-157.8,347.3 M-157.3,351.9l4.4-3.9l-0.8-0.8l-5.6,5l0.3,0.3l2.3,0.7l0.9-0.8L-157.3,351.9z
				 M-148.9,356.3l-0.6,0.8l5.4,4.3l0.6-0.8L-148.9,356.3z M-135.8,362.3l-3.9,6.5l1,0.6l3.9-6.5L-135.8,362.3z M-132.5,368.9
				c-0.3,0.1-0.6,0.1-0.9-0.1c-0.3-0.2-0.5-0.4-0.7-0.7c-0.1-0.3-0.1-0.6,0-0.9l2.3,1.2C-132,368.6-132.2,368.8-132.5,368.9
				 M-130,366.7c0-0.3-0.1-0.5-0.2-0.8c-0.1-0.2-0.2-0.5-0.4-0.7c-0.2-0.2-0.5-0.4-0.8-0.6c-0.5-0.3-1-0.4-1.4-0.3
				c-0.4,0.1-0.9,0.3-1.4,0.6l0.7,0.8c0.2-0.2,0.5-0.3,0.8-0.3c0.3,0,0.6,0,0.9,0.2c0.4,0.2,0.6,0.5,0.7,0.8c0.1,0.4,0,0.7-0.2,1.1
				l-3.4-1.7l-0.2,0.4c-0.1,0.2-0.2,0.5-0.2,0.7c-0.1,0.2-0.1,0.5-0.1,0.8c0,0.3,0.1,0.5,0.2,0.8c0.1,0.2,0.2,0.5,0.4,0.7
				c0.2,0.2,0.5,0.4,0.8,0.6c0.3,0.2,0.6,0.2,0.9,0.3c0.3,0,0.6,0,0.8-0.1c0.3-0.1,0.5-0.2,0.7-0.4s0.4-0.3,0.6-0.5
				c0.2-0.2,0.3-0.4,0.4-0.7c0.1-0.2,0.2-0.5,0.3-0.7C-130.1,367.3-130,367-130,366.7 M-128.3,366.3l-0.4,0.9l2.4,1l-3.8,2.8
				l-0.2,0.4l3.4,1.4l0.4-0.9l-2.1-0.9l3.8-2.8l0.2-0.4L-128.3,366.3z M-122.8,373.1l0.9-2.4c0.2-0.6,0.2-1.1,0-1.5
				s-0.5-0.7-1.1-0.9c-0.3-0.1-0.6-0.1-0.9-0.1v1c0.2,0,0.4,0,0.5,0c0.5,0.2,0.6,0.5,0.4,1.1l-0.9,2.5l-1.3-0.5l-0.3,0.9l1.3,0.5
				l-0.7,2.1l1.3-0.3l0.5-1.4l0.8,0.3l0.3-0.9L-122.8,373.1z M-119.4,369.6l-2.2,7.3l1.1,0.3l2.2-7.3L-119.4,369.6z M-114.6,375.1
				c-0.3,0.2-0.6,0.2-0.9,0.1c-0.4-0.1-0.6-0.2-0.8-0.5c-0.2-0.3-0.2-0.6-0.2-0.9l2.6,0.6C-114.2,374.7-114.4,374.9-114.6,375.1
				 M-112.7,372.4c-0.1-0.3-0.2-0.5-0.3-0.7c-0.1-0.2-0.3-0.4-0.6-0.6c-0.3-0.2-0.5-0.3-0.9-0.4c-0.6-0.1-1.1-0.1-1.5,0
				c-0.4,0.2-0.8,0.5-1.2,0.9l0.8,0.6c0.2-0.2,0.4-0.4,0.7-0.5c0.3-0.1,0.6-0.1,0.9-0.1c0.4,0.1,0.7,0.3,0.9,0.6
				c0.2,0.3,0.2,0.7,0.1,1.1l-3.7-0.8l-0.1,0.5c-0.1,0.2-0.1,0.5-0.1,0.7c0,0.2,0.1,0.5,0.1,0.8c0.1,0.3,0.2,0.5,0.3,0.7
				c0.1,0.2,0.3,0.4,0.6,0.6c0.2,0.2,0.5,0.3,0.9,0.4c0.3,0.1,0.7,0.1,1,0c0.3,0,0.6-0.1,0.8-0.3s0.4-0.3,0.6-0.5s0.3-0.4,0.4-0.7
				c0.1-0.2,0.2-0.5,0.3-0.7c0.1-0.3,0.1-0.5,0.1-0.8C-112.6,372.9-112.7,372.7-112.7,372.4 M-106.4,372.1l-0.4,3.4l-3-0.3l0.4-3.4
				l-1.2-0.1l-0.9,7.5l1.2,0.1l0.3-2.9l3,0.3l-0.3,2.9l1.2,0.1l0.9-7.5L-106.4,372.1z M-98.8,376.9l0.1-4.4h-1.1l-0.1,4.4h-1.2v1
				h1.2v0.4c0,0.6-0.3,0.8-0.7,0.8c-0.2,0-0.4-0.1-0.6-0.2l-0.2,0.9c0.2,0.1,0.5,0.2,0.9,0.2c0.6,0,1-0.1,1.4-0.5
				c0.3-0.3,0.5-0.8,0.5-1.4v-0.3h0.7v-1L-98.8,376.9z M-96.8,372.5l0.3,7.6h1.1l-0.3-7.6H-96.8z M-90,375.9c-0.2,0.4-0.6,0.6-1,0.7
				c-0.5,0.1-0.8-0.1-1.1-0.4c-0.3-0.3-0.5-0.7-0.5-1.2c-0.1-0.5,0-0.9,0.3-1.3c0.2-0.4,0.5-0.6,1-0.6c0.5-0.1,0.8,0.1,1.1,0.4
				c0.3,0.3,0.5,0.7,0.5,1.2C-89.7,375.1-89.8,375.6-90,375.9 M-91.6,372c-0.8,0.1-1.4,0.4-1.8,1s-0.6,1.3-0.5,2.1s0.4,1.4,0.9,1.9
				s1.2,0.7,2,0.6s1.4-0.4,1.8-1s0.6-1.3,0.5-2.1s-0.4-1.4-0.9-1.9S-90.8,372-91.6,372 M-83.4,374.9c-0.2,0.4-0.5,0.6-0.9,0.7
				c-0.4,0.1-0.8,0-1.1-0.3c-0.3-0.3-0.5-0.7-0.6-1.2s-0.1-1,0.1-1.4c0.2-0.4,0.5-0.6,0.9-0.7c0.4-0.1,0.8,0,1.1,0.3
				c0.3,0.3,0.5,0.7,0.6,1.2C-83.1,374.1-83.2,374.5-83.4,374.9 M-83.1,371.4c-0.5-0.4-1.1-0.5-1.9-0.4c-0.3,0.1-0.6,0.2-0.8,0.4
				c-0.2,0.2-0.4,0.4-0.5,0.6l-0.1-0.6l-1.1,0.2l1.4,7.4l1.1-0.2l-0.5-2.7c0.2,0.1,0.4,0.3,0.7,0.3c0.3,0.1,0.6,0.1,0.9,0.1
				c0.8-0.1,1.3-0.5,1.6-1.1c0.3-0.6,0.4-1.3,0.2-2.1C-82.2,372.5-82.6,371.8-83.1,371.4 M-77.2,369.5c-0.4-0.2-0.8-0.2-1.2-0.1
				c-0.3,0.1-0.6,0.3-0.9,0.5c-0.2,0.3-0.4,0.6-0.5,0.9l-0.3-0.9l-1.1,0.3l1.5,5.2l1.1-0.3l-0.6-2.1c-0.2-0.7-0.2-1.3-0.1-1.7
				c0.1-0.5,0.4-0.8,0.7-0.9c0.5-0.2,0.9,0.1,1.1,0.7l1,3.4l1.1-0.3l-1.1-3.7C-76.6,370-76.9,369.7-77.2,369.5 M-69.4,373.1
				l-1.4,0.5c-0.3,0.1-0.5,0.1-0.8,0c-0.2-0.1-0.4-0.3-0.5-0.6s-0.1-0.5,0-0.8c0.1-0.2,0.3-0.4,0.6-0.5l1.4-0.5L-69.4,373.1z
				 M-71.7,367.1l1.2,3.1l-0.8,0.3l-3.2-2.4l-1.3,0.5l3.2,2.5c-0.4,0.3-0.6,0.6-0.8,1c-0.1,0.4-0.1,0.9,0.1,1.3
				c0.2,0.6,0.6,1,1.1,1.2c0.5,0.2,1.1,0.2,1.7-0.1l2.5-0.9l-2.7-7L-71.7,367.1z M-62.6,367.7l-2.1-3.9l-1,0.5l2.1,3.9l-1,0.5
				l0.5,0.9l1-0.5l0.2,0.3c0.3,0.5,0.2,0.9-0.2,1.1c-0.2,0.1-0.4,0.2-0.6,0.2l0.2,0.9c0.3,0,0.6-0.1,0.9-0.2c0.5-0.3,0.8-0.6,1-1.1
				c0.1-0.4,0.1-0.9-0.2-1.5l-0.1-0.2l0.6-0.3l-0.5-0.9L-62.6,367.7z M-58,364.4c0,0.4-0.3,0.8-0.6,1c-0.4,0.2-0.8,0.3-1.2,0.1
				s-0.7-0.4-1-0.9c-0.3-0.4-0.4-0.9-0.3-1.3c0-0.4,0.2-0.8,0.6-1c0.4-0.2,0.8-0.3,1.2-0.1c0.4,0.2,0.7,0.5,1,0.9
				C-58.1,363.5-58,363.9-58,364.4 M-61.1,361.5c-0.7,0.4-1.1,1-1.2,1.7c-0.1,0.7,0,1.4,0.4,2.1s1,1.1,1.7,1.3s1.4,0.1,2.1-0.3
				c0.7-0.4,1.1-1,1.2-1.7c0.1-0.7,0-1.4-0.4-2.1s-1-1.1-1.7-1.3C-59.7,361-60.4,361.1-61.1,361.5 M-53.1,356.3
				c-0.5,0-0.9,0.2-1.2,0.5c-0.4,0.4-0.7,0.8-0.7,1.2c-0.1,0.5,0.1,0.9,0.4,1.3c0.2,0.2,0.4,0.4,0.6,0.4c0.2,0.1,0.4,0.1,0.7,0.1
				h0.1h0.1h0.1h0.1c0.1,0,0.1,0,0.1,0h0.1c0.1,0,0.1,0,0.1,0c0.2-0.1,0.4-0.1,0.6-0.2c0.1,0,0.2,0,0.4,0c0.1,0,0.2,0.1,0.3,0.2
				c0.1,0.1,0.1,0.3,0.1,0.4c0,0.1-0.1,0.3-0.2,0.3c-0.3,0.2-0.6,0.3-1,0.2l-0.1,0.9c0.3,0.1,0.6,0.1,0.9,0.1s0.6-0.2,0.8-0.4
				c0.4-0.3,0.6-0.7,0.6-1.1c0.1-0.4,0-0.8-0.3-1.1c-0.4-0.5-1-0.7-1.8-0.4c-0.1,0-0.2,0.1-0.4,0.1c-0.2,0.1-0.3,0.1-0.4,0.1
				c-0.1,0-0.2,0-0.3,0.1c-0.2,0-0.4,0-0.5-0.2c-0.3-0.4-0.3-0.7,0.1-1c0.4-0.3,0.9-0.3,1.5,0l0.4-1
				C-52.2,356.3-52.6,356.2-53.1,356.3 M-50.6,353.6l1.4,1.5c0.5,0.6,0.9,1.1,0.9,1.6c0.1,0.5,0,0.9-0.3,1.2
				c-0.2,0.2-0.4,0.3-0.6,0.3l0.6,0.9c0.2-0.1,0.4-0.2,0.6-0.4c0.2-0.2,0.4-0.5,0.5-0.8c0.1-0.3,0.1-0.7,0-1l0.6,0.7l0.8-0.8l-3.7-4
				L-50.6,353.6z M-45,351.1c0,0.2-0.2,0.5-0.4,0.7l-0.7,0.7l-0.1-0.1c-0.3-0.3-0.5-0.6-0.5-1s0.2-0.7,0.4-1
				c0.1-0.2,0.3-0.2,0.5-0.2s0.3,0.1,0.5,0.2C-45.1,350.7-45,350.9-45,351.1 M-45.6,349.1c-0.4,0-0.8,0.2-1.1,0.6
				c-0.5,0.5-0.7,1.1-0.6,1.8l-0.6-0.4l-0.6,0.7l2.5,2.3c1,1,2.1,0.9,3-0.1c0.3-0.4,0.5-0.8,0.6-1.2c0.1-0.5,0-0.9-0.3-1.3l-0.9,0.6
				c0.2,0.5,0.2,0.9-0.2,1.2c-0.2,0.2-0.4,0.4-0.7,0.4c-0.2,0-0.5-0.1-0.7-0.3l-0.2-0.2l0.6-0.7c0.5-0.5,0.8-1,0.8-1.6
				c0.1-0.5-0.1-1-0.5-1.3C-44.8,349.3-45.2,349.1-45.6,349.1 M-39.6,347.9c0,0.3-0.1,0.6-0.3,0.9s-0.5,0.4-0.8,0.5
				c-0.3,0-0.6,0-0.9-0.2l1.6-2C-39.7,347.3-39.6,347.6-39.6,347.9 M-41.1,345c-0.3,0-0.5-0.1-0.8,0c-0.3,0-0.5,0.1-0.8,0.3
				c-0.3,0.2-0.5,0.4-0.7,0.6c-0.4,0.5-0.6,0.9-0.6,1.3c0,0.4,0.1,0.9,0.3,1.5l0.9-0.5c-0.1-0.3-0.2-0.6-0.2-0.9
				c0-0.3,0.1-0.6,0.3-0.8c0.3-0.3,0.6-0.5,0.9-0.5c0.4,0,0.7,0.1,1.1,0.4l-2.4,3l0.4,0.3c0.2,0.2,0.4,0.3,0.6,0.4
				c0.2,0.1,0.5,0.2,0.7,0.2c0.3,0,0.5,0,0.8,0s0.5-0.1,0.8-0.3s0.5-0.4,0.7-0.6c0.2-0.3,0.4-0.5,0.5-0.8c0.1-0.3,0.1-0.6,0.1-0.8
				c0-0.3-0.1-0.5-0.2-0.8c-0.1-0.3-0.2-0.5-0.4-0.7s-0.3-0.4-0.6-0.6c-0.2-0.2-0.4-0.3-0.7-0.4C-40.6,345.1-40.9,345.1-41.1,345
				 M-37,342.7l-2.6-1.8l-0.7,1l2.6,1.8l2.3,4.2l0.7-1l-1.7-3l3.4,0.6l0.7-1L-37,342.7z M-29.7,335.3c0.3,0.5,0.3,0.9,0.1,1.4
				s-0.6,0.7-1.2,0.7c-0.5,0-1.2-0.2-2-0.6c-0.8-0.4-1.4-0.9-1.6-1.3c-0.3-0.5-0.3-0.9-0.1-1.4s0.6-0.7,1.2-0.7c0.5,0,1.2,0.2,2,0.6
				C-30.5,334.5-30,334.9-29.7,335.3 M-33.6,332.3c-0.8,0.1-1.4,0.5-1.8,1.3c-0.4,0.8-0.4,1.5,0,2.2c0.4,0.7,1.1,1.4,2.2,1.9
				c1.1,0.6,2,0.8,2.8,0.7s1.4-0.5,1.8-1.3c0.4-0.8,0.4-1.5,0-2.2s-1.1-1.4-2.2-1.9S-32.8,332.2-33.6,332.3 M-31.7,326.5
				c-0.5,0.2-0.9,0.7-1.1,1.3c-0.3,0.7-0.3,1.3,0,1.9c0.3,0.6,0.8,1,1.4,1.3c0.7,0.3,1.3,0.3,1.9,0.1c0.6-0.2,1-0.6,1.3-1.3
				c0.2-0.4,0.2-0.8,0-1.1l1.6,0.9l-1,2.6l1,0.4l1.4-3.4l-3.7-2l-0.4,0.6c0.3,0.6,0.4,1.1,0.2,1.6c-0.2,0.4-0.4,0.6-0.7,0.7
				s-0.7,0.1-1.1-0.1c-0.4-0.2-0.7-0.4-0.9-0.7c-0.2-0.3-0.2-0.6,0-1c0.1-0.3,0.3-0.5,0.6-0.6c0.3-0.1,0.6-0.1,1,0l0.2-1.1
				C-30.6,326.2-31.2,326.3-31.7,326.5"/>
		</g>
	</g>
</g>
</svg>
