<?xml version="1.0" encoding="utf-8"?>
<!-- Generator: Adobe Illustrator 19.0.0, SVG Export Plug-In . SVG Version: 6.00 Build 0)  -->
<svg version="1.1" id="Layer_1" xmlns="http://www.w3.org/2000/svg" xmlns:xlink="http://www.w3.org/1999/xlink" x="0px" y="0px"
	 viewBox="-564.5 401.5 80 38.5" style="enable-background:new -564.5 401.5 80 38.5;" xml:space="preserve">
<style type="text/css">
	.st0{fill:#D4D6D7;}
	.st1{fill:#FFFFFF;}
</style>
<rect x="-507.6" y="401.7" class="st0" width="6.9" height="13"/>
<path class="st0" d="M-492.9,414.1c-0.2,0-0.4,0-0.6,0c0,0-0.1,0-0.1,0l0,6.2c0,0,0,0,0,0c0.3,0.1,0.5,0.2,0.8,0.4
	c1.4,1,1.5,2.9,1.5,4.2v14.7h6.9v-17.2C-484.5,417.2-488.3,414.3-492.9,414.1z"/>
<g>
	<path class="st1" d="M-493.6,414.1c-0.1,0-0.1,0-0.2,0c-0.1,0-0.3,0-0.4,0c0,0,0,0,0,0c-3.2,0.3-5.6,2-6.4,3.8h-0.1v-3.2h-6.9v24.9
		h6.9v-13.9c0-3.8,2.2-5.8,5.1-5.8c0.2,0,0.4,0,0.5,0c0.1,0,0.1,0,0.1,0c0.1,0,0.2,0,0.4,0c0,0,0.1,0,0.1,0c0.1,0,0.3,0.1,0.4,0.1
		c0,0,0,0,0,0c0.1,0,0.3,0.1,0.4,0.1c0,0,0,0,0,0L-493.6,414.1z"/>
	<g>
		<g>
			<path class="st1" d="M-554.8,417.5c0,0,0.1,0,0.2,0v2.2c-0.1,0-0.3,0-0.4,0c-0.1,0-0.2,0-0.3,0c-0.9,0-1.4,0.3-1.7,0.8
				c-0.2,0.3-0.2,0.8-0.2,1.5v3.9h-2.2v-8.2h2v1.4c0.3-0.5,0.6-0.9,0.9-1.1c0.4-0.3,0.9-0.5,1.6-0.5
				C-554.9,417.5-554.8,417.5-554.8,417.5z"/>
			<path class="st1" d="M-550.9,417.7v4.9c0,0.5,0.1,0.8,0.2,1.1c0.2,0.4,0.6,0.6,1.1,0.6c0.7,0,1.2-0.3,1.5-0.9
				c0.1-0.3,0.2-0.7,0.2-1.3v-4.5h2.2v8.2h-2.1v-1.2c0,0-0.1,0.1-0.1,0.2c-0.1,0.1-0.2,0.2-0.3,0.3c-0.3,0.3-0.7,0.5-1,0.6
				c-0.3,0.1-0.7,0.2-1.1,0.2c-1.2,0-2-0.4-2.4-1.3c-0.2-0.5-0.4-1.2-0.4-2.1v-4.9L-550.9,417.7L-550.9,417.7z"/>
			<path class="st1" d="M-539,417.8c0.4,0.2,0.7,0.5,0.9,0.9v-3.9h2.2v11h-2.1v-1.1c-0.3,0.5-0.7,0.8-1,1.1
				c-0.4,0.2-0.9,0.3-1.5,0.3c-1,0-1.8-0.4-2.4-1.2c-0.7-0.8-1-1.8-1-3c0-1.4,0.3-2.5,1-3.3c0.6-0.8,1.5-1.2,2.6-1.2
				C-539.9,417.5-539.4,417.6-539,417.8z M-538.5,423.6c0.3-0.5,0.5-1,0.5-1.7c0-1-0.3-1.7-0.8-2.1c-0.3-0.3-0.7-0.4-1.1-0.4
				c-0.6,0-1.1,0.2-1.4,0.7c-0.3,0.5-0.4,1.1-0.4,1.8c0,0.8,0.1,1.4,0.4,1.8c0.3,0.5,0.7,0.7,1.4,0.7
				C-539.3,424.3-538.8,424.1-538.5,423.6z"/>
			<path class="st1" d="M-526.9,424.8c-0.7,0.9-1.7,1.3-3.1,1.3s-2.5-0.4-3.1-1.3c-0.7-0.9-1-1.9-1-3.1c0-1.2,0.3-2.2,1-3.1
				c0.7-0.9,1.7-1.3,3.1-1.3c1.4,0,2.5,0.4,3.1,1.3c0.7,0.9,1,1.9,1,3.1C-525.8,423-526.2,424-526.9,424.8z M-528.6,423.7
				c0.3-0.4,0.5-1.1,0.5-1.9c0-0.8-0.2-1.4-0.5-1.9c-0.3-0.4-0.8-0.7-1.4-0.7s-1.1,0.2-1.4,0.7c-0.3,0.4-0.5,1.1-0.5,1.9
				s0.2,1.5,0.5,1.9c0.3,0.4,0.8,0.7,1.4,0.7S-528.9,424.1-528.6,423.7z"/>
			<path class="st1" d="M-521.8,425.8h-2.1v-11.1h2.1V425.8z"/>
			<path class="st1" d="M-516,414.7c0.1,0,0.3,0,0.5,0v1.7c-0.1,0-0.3,0-0.6,0c-0.3,0-0.5,0.1-0.6,0.2c-0.1,0.1-0.2,0.3-0.2,0.4
				c0,0.2,0,0.4,0,0.7h1.4v1.5h-1.4v6.6h-2.1v-6.6h-1.2v-1.5h1.2v-0.5c0-0.9,0.1-1.5,0.4-1.8c0.3-0.5,1.1-0.7,2.2-0.7
				C-516.3,414.7-516.1,414.7-516,414.7z"/>
		</g>
		<g>
			<path class="st1" d="M-558.6,431.5c0.4,0.2,0.7,0.4,1,0.8c0.2,0.3,0.4,0.6,0.4,0.9c0.1,0.3,0.1,0.9,0.1,1.6v4.8h-2.2v-5
				c0-0.4-0.1-0.8-0.2-1.1c-0.2-0.4-0.6-0.6-1.1-0.6c-0.6,0-1,0.2-1.3,0.6c-0.3,0.4-0.4,0.9-0.4,1.6v4.4h-2.1v-11h2.1v3.9
				c0.3-0.5,0.7-0.8,1.1-1c0.4-0.2,0.8-0.3,1.3-0.3C-559.5,431.2-559,431.3-558.6,431.5z"/>
			<path class="st1" d="M-549.5,431.6c0.6,0.3,1,0.7,1.4,1.2c0.3,0.5,0.6,1,0.7,1.7c0.1,0.4,0.1,0.9,0.1,1.6h-6
				c0,0.8,0.3,1.4,0.9,1.7c0.3,0.2,0.7,0.3,1.2,0.3c0.5,0,0.9-0.1,1.2-0.4c0.2-0.1,0.3-0.3,0.4-0.6h2.2c-0.1,0.5-0.3,1-0.8,1.5
				c-0.7,0.8-1.8,1.2-3.1,1.2c-1.1,0-2-0.3-2.9-1c-0.8-0.7-1.2-1.8-1.2-3.3c0-1.4,0.4-2.5,1.1-3.3c0.8-0.8,1.7-1.1,2.9-1.1
				C-550.7,431.2-550.1,431.3-549.5,431.6z M-552.7,433.4c-0.3,0.3-0.5,0.7-0.6,1.3h3.7c0-0.6-0.2-1-0.6-1.3
				c-0.3-0.3-0.8-0.4-1.3-0.4C-552,433-552.4,433.1-552.7,433.4z"/>
			<path class="st1" d="M-543.8,439.6h-2.1v-11.1h2.1V439.6z"/>
			<path class="st1" d="M-542.2,433v-1.5h1.1v-2.3h2.1v2.3h1.3v1.5h-1.3v4.3c0,0.3,0,0.5,0.1,0.6c0.1,0.1,0.3,0.1,0.8,0.1
				c0.1,0,0.1,0,0.2,0c0.1,0,0.1,0,0.2,0v1.6l-1,0c-1,0-1.7-0.1-2.1-0.5c-0.2-0.2-0.4-0.6-0.4-1.1v-5
				C-541.1,433-542.2,433-542.2,433z"/>
			<path class="st1" d="M-536.4,433.2v-1.7h6.5v1.8l-4,4.6h4.2v1.8h-6.9v-1.7l4.1-4.8C-532.7,433.2-536.4,433.2-536.4,433.2z"/>
			<path class="st1" d="M-522.6,431.6c0.6,0.3,1,0.7,1.4,1.2c0.3,0.5,0.6,1,0.7,1.7c0.1,0.4,0.1,0.9,0.1,1.6h-6
				c0,0.8,0.3,1.4,0.9,1.7c0.3,0.2,0.7,0.3,1.2,0.3c0.5,0,0.9-0.1,1.2-0.4c0.2-0.1,0.3-0.3,0.4-0.6h2.2c-0.1,0.5-0.3,1-0.8,1.5
				c-0.7,0.8-1.8,1.2-3.1,1.2c-1.1,0-2-0.3-2.9-1c-0.8-0.7-1.2-1.8-1.2-3.3c0-1.4,0.4-2.5,1.1-3.3s1.7-1.1,2.9-1.1
				C-523.8,431.2-523.2,431.3-522.6,431.6z M-525.8,433.4c-0.3,0.3-0.5,0.7-0.6,1.3h3.7c0-0.6-0.2-1-0.6-1.3
				c-0.3-0.3-0.8-0.4-1.3-0.4C-525.1,433-525.5,433.1-525.8,433.4z"/>
			<path class="st1" d="M-516.9,439.6h-2.1v-11.1h2.1V439.6z"/>
		</g>
	</g>
</g>
</svg>
